<?xml version="1.0" encoding="UTF-8"?>
<svg version="1.1" xmlns="http://www.w3.org/2000/svg" width="500" height="500">
<path d="M0 0 C165 0 330 0 500 0 C500 165 500 330 500 500 C335 500 170 500 0 500 C0 335 0 170 0 0 Z " fill="#1C0883" transform="translate(0,0)"/>
<path d="M0 0 C165 0 330 0 500 0 C500 79.2 500 158.4 500 240 C499.67 240 499.34 240 499 240 C498.87625 239.175 498.7525 238.35 498.625 237.5 C496.1842456 223.83177536 490.3972359 211.33073616 481 201 C480.38511719 200.31679687 479.77023437 199.63359375 479.13671875 198.9296875 C467.72926626 186.9049981 451.39685783 177.96739644 435.56884766 173.2800293 C427.92660883 170.81142949 425.24480759 166.96628779 421.5 160.0625 C420.39186198 158.1545556 419.27857048 156.24959508 418.16015625 154.34765625 C417.62406738 153.4261377 417.08797852 152.50461914 416.53564453 151.55517578 C410.5462172 141.58930194 402.57819727 132.9820728 394.55761719 124.625 C393.52418052 123.54685666 392.49610678 122.46354554 391.47363281 121.375 C375.21341718 104.08618287 355.74734426 91.28194747 334.625 80.625 C333.98175781 80.29910889 333.33851563 79.97321777 332.67578125 79.63745117 C329.5460961 78.09695946 326.47626261 76.78203261 323.14453125 75.7421875 C313.49727478 72.5094925 313.49727478 72.5094925 310.890625 67.52734375 C309.67488328 64.78941303 308.65245216 61.99545174 307.6328125 59.1796875 C301.41122654 42.19686024 285.984679 27.98749221 269.9375 20.5 C263.21047479 17.56457082 258.14236133 16.76257605 250.875 16.6875 C249.96234375 16.65849609 249.0496875 16.62949219 248.109375 16.59960938 C239.91851905 16.52376812 233.48952452 18.3834617 227.5625 24.1875 C222.81073906 28.00604937 217.67824107 27.54669614 211.85571289 27.6796875 C199.55423874 28.02417437 188.36500533 32.77872838 179.3125 41.1875 C171.52942342 49.53562429 164.65710527 61.63268874 161.19238281 72.54321289 C159.7004266 75.61724142 158.54391983 76.13691437 155.44140625 77.47265625 C154.50756104 77.8907959 153.57371582 78.30893555 152.61157227 78.73974609 C151.60537842 79.17625488 150.59918457 79.61276367 149.5625 80.0625 C126.82606503 90.45538768 108.05190313 104.87383549 90 122 C89.32066406 122.61488281 88.64132813 123.22976562 87.94140625 123.86328125 C71.73564816 139.0582852 59.13987228 159.90245696 50 180 C49.65839844 180.75039551 49.31679688 181.50079102 48.96484375 182.27392578 C44.01985222 193.27470722 39.95924995 204.30683415 37 216 C36.81453613 216.70995117 36.62907227 217.41990234 36.43798828 218.15136719 C34.41133348 226.07036596 32.98834952 233.77991365 32.58984375 241.9609375 C32.4983606 243.76908936 32.4983606 243.76908936 32.4050293 245.61376953 C32.3036737 247.99107698 32.23726159 250.37019845 32.21020508 252.74951172 C31.88818548 260.86488176 31.88818548 260.86488176 29.25952148 264.22436523 C27.25057092 265.97500566 25.17988014 267.47228536 23 269 C11.34544651 280.45227558 3.59748398 294.93661221 1 311 C0.67 311 0.34 311 0 311 C0 208.37 0 105.74 0 0 Z " fill="#F1FDFD" transform="translate(0,0)"/>
<path d="M0 0 C0.33 0 0.66 0 1 0 C1 82.17 1 164.34 1 249 C-164 249 -329 249 -499 249 C-499 190.59 -499 132.18 -499 72 C-498.67 72 -498.34 72 -498 72 C-497.731875 73.07636719 -497.46375 74.15273438 -497.1875 75.26171875 C-491.51730158 96.84769741 -479.05693107 111.77416181 -459.99804688 123.20019531 C-452.85669774 127.33017325 -445.69545457 130.83881111 -437.90258789 133.55566406 C-428.22458737 136.94422637 -423.25165461 140.65639907 -417 149 C-415.84688676 150.3657263 -414.68124948 151.72103508 -413.5 153.0625 C-412.94828125 153.69414062 -412.3965625 154.32578125 -411.828125 154.9765625 C-405.31427908 162.18633213 -398.34628503 168.78676845 -390.65234375 174.72363281 C-389.49294075 175.61922367 -388.33980148 176.52295423 -387.19140625 177.43261719 C-363.33946343 196.20942328 -335.72859618 208.28907552 -306.42138672 215.39160156 C-304.41254544 215.89634369 -302.421787 216.4724256 -300.4375 217.06640625 C-296.02685076 218.26429849 -291.65032674 219.00542612 -287.125 219.625 C-285.61498413 219.83479492 -285.61498413 219.83479492 -284.07446289 220.04882812 C-277.01717975 220.88558273 -270.20546811 221.03063667 -263.11328125 220.8046875 C-229.19527209 219.79069914 -229.19527209 219.79069914 -213.46875 229.59375 C-208.9096175 232.33395399 -205.23644558 233.05024089 -200 232 C-193.66165129 229.83540568 -188.26216583 225.55889973 -182.875 221.6875 C-181.09853468 220.42714635 -179.32115856 219.16807569 -177.54296875 217.91015625 C-176.17277588 216.93973389 -176.17277588 216.93973389 -174.77490234 215.94970703 C-170.27980456 212.79135309 -165.73404168 209.70862432 -161.1875 206.625 C-152.55585924 200.76172458 -143.97598141 194.82796664 -135.41943359 188.85571289 C-130.04765764 185.10942477 -124.65724882 181.39356297 -119.24047852 177.71264648 C-105.54943748 169.81333818 -105.54943748 169.81333818 -95 159 C-95.11859375 158.19433594 -95.2371875 157.38867188 -95.359375 156.55859375 C-96.2440785 149.48981281 -95.04435739 145.31000683 -90.80908203 139.77319336 C-88.43943418 136.85866562 -86.05094285 133.96030595 -83.65380859 131.06835938 C-73.02157583 117.77100538 -65.05763176 100.31759858 -59.6875 84.3125 C-56.84126472 77.13412719 -50.55524649 72.88101567 -44.62841797 68.27197266 C-23.04409999 51.41225801 -4.19202269 27.75688813 0 0 Z " fill="#F1FDFD" transform="translate(499,251)"/>
<path d="M0 0 C0 1.65 0 3.3 0 5 C-9.88801739 7.1276711 -19.8778087 8.55763468 -29.875 10.0625 C-32.54870804 10.4654832 -35.22229703 10.86918483 -37.89553833 11.2752533 C-39.54912958 11.52641142 -41.20298906 11.77581171 -42.85714722 12.02320862 C-46.28663263 12.54386061 -49.64499816 13.12113153 -53 14 C-53 14.66 -53 15.32 -53 16 C-48.91892135 17.98383206 -44.83543435 19.96265547 -40.75 21.9375 C-40.14263 22.23112427 -39.53526001 22.52474854 -38.90948486 22.82727051 C-29.94745338 27.15425827 -20.93890165 31.35797769 -11.83105469 35.37084961 C-6.09372778 37.90627222 -6.09372778 37.90627222 -5 39 C-4.49730235 45.1025157 -5.26379761 50.14031693 -7 56 C-7.43646745 58.92267443 -7.34595621 60.98523871 -7 64 C-5.08817732 66.74612994 -5.08817732 66.74612994 -2 68 C1.66974518 68.0951654 1.66974518 68.0951654 5 67 C7.10209857 63.84685215 7.2434761 63.13896919 7.1953125 59.55078125 C7.18886719 58.70322266 7.18242187 57.85566406 7.17578125 56.98242188 C7.15902344 56.10134766 7.14226562 55.22027344 7.125 54.3125 C7.11597656 53.41982422 7.10695313 52.52714844 7.09765625 51.60742188 C7.07409748 49.40467686 7.04120329 47.20247412 7 45 C14.38710623 47.24691148 21.08826009 50.32930233 28 53.75 C30.40091131 54.9223558 32.80269147 56.09254034 35.20703125 57.2578125 C35.83350052 57.56145721 36.45996979 57.86510193 37.10542297 58.177948 C44.57654475 61.78326414 52.12994013 65.20566605 59.6875 68.625 C61.0840165 69.25839273 62.48050103 69.89185593 63.87695312 70.52539062 C70.37282386 73.46942142 76.87712106 76.3930233 83.39453125 79.2890625 C84.51706299 79.79228027 85.63959473 80.29549805 86.79614258 80.81396484 C88.87925728 81.74765993 90.9661691 82.6729449 93.05737305 83.58837891 C93.96656494 83.99749512 94.87575684 84.40661133 95.8125 84.828125 C96.99779297 85.3526123 96.99779297 85.3526123 98.20703125 85.88769531 C100 87 100 87 101 90 C100.875 93.4375 100.875 93.4375 100 97 C99.154375 97.61875 98.30875 98.2375 97.4375 98.875 C94.84682542 100.70979521 94.84682542 100.70979521 94.53125 103.1015625 C94.38158772 106.9304224 94.54768487 109.28673383 96.625 112.5625 C99.72548536 114.43910956 101.43283597 114.59452734 105 114 C108.86178282 111.18351178 109.64226091 108.45187762 110.41796875 103.9609375 C110.52753906 103.23132813 110.63710938 102.50171875 110.75 101.75 C110.87503906 101.00492187 111.00007812 100.25984375 111.12890625 99.4921875 C111.43363834 97.66379497 111.71878521 95.83215696 112 94 C116.18792814 94.63360695 119.53199884 96.05805369 123.33203125 97.90625 C124.5551847 98.4912072 125.77849708 99.07583218 127.00195312 99.66015625 C128.90626822 100.57742053 130.80872259 101.49815629 132.70825195 102.42529297 C142.41933943 107.22301485 142.41933943 107.22301485 153 109 C153.20018856 102.69406021 152.79175334 96.68074814 152 90.4375 C150.05687098 74.63924092 150.05687098 74.63924092 152.53710938 70.32836914 C155.77330659 67.26893092 158.52798036 67.1550484 162.78125 66.99609375 C163.92458549 66.92322899 163.92458549 66.92322899 165.09101868 66.84889221 C166.71852274 66.74625589 168.34667038 66.65343307 169.97525024 66.56958008 C174.18904864 66.3491389 178.39687262 66.04848115 182.60546875 65.74609375 C183.42794601 65.68803558 184.25042328 65.62997742 185.0978241 65.57015991 C191.41868592 65.1005681 197.60426664 64.30345758 203.8125 63 C204.555 62.84587646 205.2975 62.69175293 206.0625 62.53295898 C210.89884763 61.44013043 215.39958899 59.8133759 220 58 C220 57.34 220 56.68 220 56 C199.24897247 46.42937144 178.47605988 36.91753567 157.60595703 27.60888672 C151.69626207 24.97213047 145.78946994 22.32890375 139.88354492 19.68371582 C137.98457603 18.83357525 136.08508963 17.98459957 134.18554688 17.13574219 C133.04021484 16.62301758 131.89488281 16.11029297 130.71484375 15.58203125 C129.70542725 15.13061768 128.69601074 14.6792041 127.65600586 14.21411133 C125.41068213 13.18773069 123.19854538 12.12230694 121 11 C121 9.02 121 7.04 121 5 C127.10056941 6.88368459 132.77729343 9.18137224 138.5 12 C147.16254622 16.18788821 155.93010845 20.09888723 164.75585938 23.9296875 C170.88452942 26.59817072 176.96041795 29.36389201 183.01013184 32.2059021 C187.99198833 34.54174668 192.99882684 36.81842258 198.015625 39.078125 C199.54824069 39.7706926 201.08079263 40.46340128 202.61328125 41.15625 C204.9553594 42.21501802 207.29830222 43.27163404 209.64404297 44.32226562 C211.95826996 45.35966137 214.26848202 46.40557097 216.578125 47.453125 C217.2811676 47.76566223 217.98421021 48.07819946 218.70855713 48.40020752 C225.18360945 51.35443139 225.18360945 51.35443139 227 54 C227.66235352 56.38842773 227.66235352 56.38842773 228.06640625 59.24609375 C228.22254395 60.31843262 228.37868164 61.39077148 228.53955078 62.49560547 C228.69149902 63.65205566 228.84344727 64.80850586 229 66 C229.15839355 67.18094238 229.31678711 68.36188477 229.47998047 69.57861328 C229.98050117 73.40484961 230.46073384 77.23323525 230.9375 81.0625 C232.00906993 89.56095088 233.09630785 98.04868453 234.5 106.5 C235.79262629 114.34084657 236.87711795 122.20698157 237.91113281 130.08544922 C238.09311868 131.46963499 238.27683099 132.85359504 238.46240234 134.23730469 C239.39243131 141.19304044 240.25879114 147.97694377 240 155 C239.67 155 239.34 155 239 155 C238.8858223 154.31049255 238.77164459 153.62098511 238.65400696 152.9105835 C237.5536013 146.26731675 236.45144948 139.62434156 235.34754658 132.98165512 C234.78068988 129.57027431 234.21440679 126.1588008 233.6496582 122.74707031 C232.99357962 118.78419165 232.33539797 114.82166622 231.67578125 110.859375 C231.51237936 109.87689034 231.51237936 109.87689034 231.34567642 108.8745575 C230.12460334 101.54442926 228.87285768 94.22110567 227.55224609 86.90820312 C227.31998825 85.62190002 227.08773041 84.33559692 226.84843445 83.01031494 C226.40505413 80.5703362 225.9582914 78.13096892 225.50764465 75.69232178 C225.30942612 74.60566223 225.11120758 73.51900269 224.90698242 72.39941406 C224.64349251 70.97438568 224.64349251 70.97438568 224.37467957 69.52056885 C224 67 224 67 224 63 C223.16339844 63.32613281 222.32679688 63.65226562 221.46484375 63.98828125 C205.25049412 70.07539589 189.167781 71.74824783 172 73 C170.47135322 73.11457068 168.94270729 73.2291528 167.4140625 73.34375 C164.27660463 73.57285443 161.13899814 73.79327222 158 74 C157.70701919 81.68260803 158.4227782 89.03487163 159.5625 96.6171875 C160.76018541 106.47200211 159.95475452 116.54594249 159.23046875 126.41015625 C159.14970596 127.56145523 159.06894318 128.71275421 158.98573303 129.89894104 C158.72379931 133.62043391 158.45566751 137.34145164 158.1875 141.0625 C158.00505332 143.64042828 157.82309182 146.21839093 157.64160156 148.79638672 C157.27436676 154.0087516 156.90518149 159.22097268 156.53466797 164.43310547 C155.81859995 174.53347564 155.13045154 184.63571616 154.44570923 194.73825073 C154.1927681 198.46918167 153.93871523 202.20003656 153.68467712 205.93089294 C153.45617956 209.28724351 153.22806777 212.64362021 153 216 C136.84790523 220.69092763 120.58612687 224.37684397 104.07861328 227.58834839 C101.78573512 228.04243333 99.49764044 228.51754116 97.20898438 228.99243164 C84.38823154 231.60462964 71.65709897 233.11523869 58.625 234.1875 C56.72778185 234.35256741 54.83064582 234.51858153 52.93359375 234.68554688 C48.41013991 235.08006543 43.88529526 235.45227624 39.3588562 235.81082153 C37.31156456 235.97501276 35.26517999 236.15043993 33.21899414 236.32788086 C22.04299559 237.21258493 10.85767198 237.18609366 -0.34741211 237.18530273 C-3.7675455 237.18747149 -7.18734596 237.2056377 -10.60742188 237.22460938 C-22.13221886 237.25454876 -33.57905231 236.97483333 -45.07421875 236.11328125 C-46.12535355 236.03554977 -47.17648834 235.9578183 -48.25947571 235.87773132 C-54.62095452 235.350081 -60.77275456 234.40292102 -67 233 C-67.1216065 219.81420785 -66.80560004 206.6798252 -66.26331902 193.50560951 C-66.02473017 187.69208398 -65.80017683 181.87801161 -65.57470703 176.06396484 C-65.52706553 174.84052651 -65.47942404 173.61708818 -65.43033886 172.35657597 C-64.88597906 158.25650156 -64.42251588 144.15389319 -63.96484375 130.05078125 C-63.92253254 128.75139492 -63.88022133 127.45200859 -63.83662796 126.11324692 C-63.57850721 118.1827843 -63.32220634 110.25226391 -63.06671143 102.32171631 C-62.72140126 91.60418006 -62.37405971 80.88670991 -62.02572823 70.16927147 C-61.86952915 65.35106279 -61.71487507 60.53280517 -61.56086063 55.71452618 C-61.48709285 53.46975942 -61.41003728 51.22509796 -61.32946682 48.98056507 C-61.1235382 43.21780873 -60.97089239 37.4605132 -60.89724731 31.69442749 C-60.87350572 30.50531108 -60.84976412 29.31619467 -60.82530308 28.09104443 C-60.78034699 25.8245486 -60.75389135 23.55758311 -60.74909115 21.29064655 C-60.56871056 13.76851213 -60.56871056 13.76851213 -57.66191101 9.84048462 C-54.35541161 7.55432206 -51.7969629 6.972275 -47.828125 6.35546875 C-47.13406555 6.24236862 -46.4400061 6.12926849 -45.72491455 6.01274109 C-43.48598647 5.65405682 -41.24394512 5.32568554 -39 5 C-37.49398952 4.76872273 -35.98812976 4.53646183 -34.48242188 4.30322266 C-30.67809603 3.72235466 -26.87004875 3.17287289 -23.05908203 2.63745117 C-20.70924551 2.30676473 -18.36047396 1.9691325 -16.01171875 1.63085938 C-14.50266153 1.4162629 -12.99354899 1.20205499 -11.484375 0.98828125 C-10.78963074 0.88832352 -10.09488647 0.78836578 -9.37908936 0.68537903 C-6.1980295 0.24203443 -3.22319261 0 0 0 Z " fill="#F49B51" transform="translate(147,126)"/>
<path d="M0 0 C0.92731934 0.00572021 1.85463867 0.01144043 2.81005859 0.01733398 C10.34137415 0.21296112 16.20693022 1.64999163 22.75 5.5 C24.15958984 6.29664063 24.15958984 6.29664063 25.59765625 7.109375 C42.58850472 17.29920985 54.17763993 32.3789779 61.75 50.5 C62.08635132 52.16606023 62.4208478 53.83250256 62.75 55.5 C63.41 55.83 64.07 56.16 64.75 56.5 C65.49169922 58.60620117 65.49169922 58.60620117 66.1796875 61.35546875 C66.43717773 62.35755371 66.69466797 63.35963867 66.95996094 64.39208984 C67.22067383 65.4177002 67.48138672 66.44331055 67.75 67.5 C68.24804214 69.30985533 68.75060153 71.11847404 69.2578125 72.92578125 C72.72206231 85.47818842 75.93364472 98.08185394 78.96307373 110.74545288 C79.35737548 112.39294041 79.75368211 114.03994961 80.15216064 115.68643188 C82.54349666 125.59019642 84.53555869 135.37182507 85.75 145.5 C77.96750857 143.1296139 70.78253948 139.85341193 63.4375 136.375 C60.94376671 135.20346783 58.44838616 134.03546115 55.953125 132.8671875 C55.33723007 132.57825623 54.72133514 132.28932495 54.08677673 131.99163818 C46.4597784 128.41761054 38.77146634 124.98261096 31.08154297 121.546875 C26.63005132 119.54813194 22.19047925 117.52306349 17.75 115.5 C17.73541748 116.1398584 17.72083496 116.7797168 17.70581055 117.43896484 C17.05562312 143.52457623 15.52881095 169.80965463 10.75 195.5 C6.79 193.85 2.83 192.2 -1.25 190.5 C-1.13406494 189.11925293 -1.01812988 187.73850586 -0.89868164 186.31591797 C-0.46356746 181.13109477 -0.02959592 175.94617643 0.40405273 170.76123047 C0.59092163 168.52878299 0.77808918 166.29636049 0.96557617 164.06396484 C1.49422777 157.76807675 2.01784434 151.47181871 2.53143311 145.17468262 C2.66534301 143.53597838 2.80037008 141.89736437 2.93731689 140.25891113 C3.62527791 131.98757547 3.87408332 123.79979544 3.75 115.5 C2.69240479 115.02393311 1.63480957 114.54786621 0.54516602 114.05737305 C-4.53363847 111.77018207 -9.61069047 109.47911503 -14.6875 107.1875 C-15.61684357 106.76826263 -16.54618713 106.34902527 -17.50369263 105.91708374 C-28.38432832 101.00612531 -39.245404 96.05737413 -50.0625 91.0078125 C-51.00400406 90.5687709 -51.94550812 90.12972931 -52.9155426 89.67738342 C-57.45910019 87.55740252 -61.99919757 85.43040948 -66.53491211 83.29370117 C-68.17813678 82.52504424 -69.82144287 81.75656135 -71.46484375 80.98828125 C-72.21294312 80.63295319 -72.96104248 80.27762512 -73.73181152 79.91152954 C-77.81467087 78.00460304 -77.81467087 78.00460304 -82.25 77.5 C-82.94966828 79.33081144 -82.94966828 79.33081144 -83.25 81.5 C-81.70501424 84.0230851 -80.13216564 86.32279899 -78.375 88.6875 C-71.46376634 98.53621617 -71.46376634 98.53621617 -72.25 105.5 C-75.3443024 110.4082038 -79.60355226 111.55014128 -84.9453125 113.01953125 C-87.25 113.5 -87.25 113.5 -90.25 113.5 C-89.59 107.89 -88.93 102.28 -88.25 96.5 C-90.23 95.84 -92.21 95.18 -94.25 94.5 C-95.59721283 93.86184656 -96.93747118 93.20674629 -98.25 92.5 C-98.86144785 82.51301845 -96.87089631 71.89270505 -92.40234375 62.921875 C-91.19955939 60.39398922 -90.21704055 57.81464505 -89.23632812 55.1940918 C-82.9791971 38.67368917 -73.15372849 22.87766897 -56.6015625 15.28515625 C-51.50160925 13.18385587 -46.80409612 11.36466785 -41.23828125 11.4296875 C-30.9913006 11.62256638 -30.9913006 11.62256638 -22.125 7.125 C-21.54492188 6.51914062 -20.96484375 5.91328125 -20.3671875 5.2890625 C-14.44068146 0.28105555 -7.4163276 -0.05319501 0 0 Z " fill="#F6B046" transform="translate(250.25,15.5)"/>
<path d="M0 0 C4.13564168 0.63467058 7.45877074 2.00836652 11.22265625 3.81640625 C12.13102989 4.24861732 12.13102989 4.24861732 13.05775452 4.68955994 C14.37199956 5.31495172 15.68517028 5.94260509 16.99737549 6.57226562 C31.40592811 13.48121665 45.95301401 20.04665749 60.59008789 26.45532227 C69.53359287 30.38338259 78.30870946 34.53834482 87 39 C87.41484413 50.8059585 86.3051727 62.52015862 85.34594727 74.27587891 C85.0620805 77.75514168 84.7852706 81.23490978 84.50976562 84.71484375 C84.33113583 86.95055336 84.15211298 89.18623161 83.97265625 91.421875 C83.89032242 92.45020447 83.80798859 93.47853394 83.72315979 94.5380249 C82.35298351 111.29403298 82.35298351 111.29403298 81 114 C81.70125 114.103125 82.4025 114.20625 83.125 114.3125 C86.39112785 115.09353057 89.02506741 116.46308884 92 118 C96.86391144 93.7839303 98.22816769 68.64540408 99 44 C113.62436954 50.21939791 128.08891102 56.75662584 142.51641846 63.41638184 C154.47708967 68.93744156 166.46638666 74.38558341 178.51416016 79.71411133 C185.78202979 82.94445643 192.91659391 86.38299243 200 90 C199.67 90.99 199.34 91.98 199 93 C196.7245301 94.01960946 194.62521464 94.79044293 192.25 95.5 C191.53682617 95.71503174 190.82365234 95.93006348 190.08886719 96.15161133 C178.4873258 99.46011611 166.5508039 100.75676124 154.5390625 101.484375 C153.26901367 101.56212158 151.99896484 101.63986816 150.69042969 101.7199707 C148.17910278 101.86314912 145.6666004 101.98720261 143.15332031 102.09057617 C142.00702148 102.15220947 140.86072266 102.21384277 139.6796875 102.27734375 C138.14417236 102.34296509 138.14417236 102.34296509 136.57763672 102.40991211 C133.89406932 102.78613716 133.89406932 102.78613716 132.16455078 104.81469727 C128.88954772 110.96030573 131.44042899 119.99056195 132.28125 126.67260742 C132.94531649 132.08920049 133.5430361 137.54438149 133 143 C132.67 143.33 132.34 143.66 132 144 C125.99858327 143.61874223 121.39781322 142.18257083 116 139.62109375 C115.2788501 139.28956802 114.5577002 138.9580423 113.81469727 138.61647034 C111.5382102 137.56708062 109.2691583 136.50262988 107 135.4375 C105.44708288 134.71838889 103.89370122 134.00028006 102.33984375 133.28320312 C98.55442927 131.53367106 94.77560005 129.77060652 91 128 C90.87044922 129.64548828 90.87044922 129.64548828 90.73828125 131.32421875 C90.59751928 132.77875906 90.45552705 134.23318067 90.3125 135.6875 C90.25900391 136.40873047 90.20550781 137.12996094 90.15039062 137.87304688 C89.7238159 141.93478012 89.24633712 143.69338462 86.60546875 146.98046875 C84 149 84 149 81 149.625 C76.82137038 148.75445216 75.43112843 147.50368509 73 144 C72.36064431 140.87549656 72.35314575 138.12354846 73 135 C74.875 132.4375 74.875 132.4375 77 131 C77.66 131 78.32 131 79 131 C79 128.03 79 125.06 79 122 C77.96520508 121.52280518 76.93041016 121.04561035 75.86425781 120.55395508 C57.85697338 112.2492856 39.85140434 103.94125571 21.86914062 95.58251953 C9.92368087 90.03133134 -2.03722525 84.51376257 -14 79 C-13.93216309 79.66604248 -13.86432617 80.33208496 -13.79443359 81.01831055 C-13.70500488 81.90301025 -13.61557617 82.78770996 -13.5234375 83.69921875 C-13.39074463 85.00765747 -13.39074463 85.00765747 -13.25537109 86.3425293 C-12.24505899 96.85614999 -12.24505899 96.85614999 -15.0625 101.125 C-18 103 -18 103 -21.5625 103.0625 C-25.3367893 101.89590149 -26.87051297 101.32199976 -29 98 C-29.42769238 93.65179412 -29.23809071 90.80355616 -28 86.625 C-27.09879304 83.35812479 -26.89384835 81.10733212 -26.9375 77.7734375 C-26.94652344 76.87802246 -26.95554688 75.98260742 -26.96484375 75.06005859 C-26.97644531 74.38023926 -26.98804688 73.70041992 -27 73 C-27.81976318 72.61779297 -28.63952637 72.23558594 -29.48413086 71.84179688 C-59.59611391 57.80066176 -59.59611391 57.80066176 -74 51 C-74 49.68 -74 48.36 -74 47 C-62.40089479 44.79150164 -50.74221965 43.02903118 -39.0625 41.3125 C-38.28795471 41.19822662 -37.51340942 41.08395325 -36.71539307 40.96621704 C-34.48892247 40.63832399 -32.26212375 40.31278064 -30.03515625 39.98828125 C-28.7294165 39.79790283 -27.42367676 39.60752441 -26.07836914 39.41137695 C-23 39 -23 39 -21 39 C-20.94392578 37.96166016 -20.94392578 37.96166016 -20.88671875 36.90234375 C-20.31526859 28.39782085 -18.80604086 20.3146032 -17 12 C-16.89300781 12.63679688 -16.78601563 13.27359375 -16.67578125 13.9296875 C-16.45277344 14.61289063 -16.22976562 15.29609375 -16 16 C-13.1628485 17.19595537 -13.1628485 17.19595537 -10 18 C-8.65586532 18.64461166 -7.31990272 19.30712265 -6 20 C-5.74712807 26.06892629 -6.30167391 31.16200408 -8 37 C-5.91221688 36.43279881 -3.82987169 35.84555797 -1.75 35.25 C-0.00976562 34.76273438 -0.00976562 34.76273438 1.765625 34.265625 C5.14232887 32.9443061 6.8121643 31.86553115 9 29 C9.77147307 21.1566905 5.91534431 16.29965684 1.33154297 10.31713867 C-0.04296875 8.453125 -0.04296875 8.453125 -2 5 C-1.30078125 2.046875 -1.30078125 2.046875 0 0 Z " fill="#491088" transform="translate(168,92)"/>
<path d="M0 0 C13.09973891 4.81615038 26.05192403 9.97945872 39 15.1875 C42.01973822 16.40095605 45.03969113 17.61387087 48.06005859 18.82575989 C49.92145562 19.5727331 51.78248366 20.32062671 53.64306641 21.06962585 C58.73811187 23.11548564 63.8513983 25.09276523 69 27 C69 27.66 69 28.32 69 29 C66.7209227 30.71160853 64.43648184 32.30404308 62.0625 33.875 C60.58000456 34.87392546 59.098257 35.87396157 57.6171875 36.875 C56.84987305 37.39191406 56.08255859 37.90882813 55.29199219 38.44140625 C51.72158451 40.86934432 48.20564692 43.3722212 44.6875 45.875 C35.53491661 52.36260054 26.2713999 58.68392986 17 65 C13.91559021 67.10259345 10.83241221 69.20697934 7.75 71.3125 C6.98469971 71.83440918 6.21939941 72.35631836 5.4309082 72.89404297 C0.92218555 75.97595465 -3.5614694 79.09064847 -8.02734375 82.234375 C-9.05118164 82.95326904 -10.07501953 83.67216309 -11.12988281 84.4128418 C-13.11817652 85.81071197 -15.1033832 87.21298698 -17.08496094 88.62036133 C-31.72984983 98.90714396 -31.72984983 98.90714396 -39.4765625 98.51220703 C-44.40227074 97.51238738 -48.74589101 95.16926524 -53.18438721 92.87521362 C-56.36217194 91.233976 -59.57020416 89.6533192 -62.7734375 88.0625 C-63.44313568 87.7278624 -64.11283386 87.39322479 -64.80282593 87.04844666 C-72.31834918 83.30801246 -79.967222 79.87426443 -87.625 76.4375 C-98.75925364 71.42440843 -109.79634699 66.25077993 -120.77587891 60.9050293 C-130.13498936 56.36871874 -139.59543819 52.08184629 -149.07891846 47.81454468 C-160.85544713 42.50748025 -172.47917148 36.92288844 -184.07485962 31.23306274 C-197.89648285 24.45765112 -211.87106333 18.11111937 -226 12 C-222.14777767 10.61319996 -218.98274605 11.38132346 -215 12 C-211.87583026 12.25123438 -208.7480064 12.39277034 -205.6171875 12.53515625 C-204.70655548 12.57835999 -203.79592346 12.62156372 -202.85769653 12.66607666 C-163.05935599 14.50670955 -123.6773565 14.97694044 -84 11 C-82.75766602 10.8772168 -81.51533203 10.75443359 -80.23535156 10.62792969 C-68.27828549 9.40905438 -56.48621899 7.73167724 -44.71826172 5.26977539 C-43.92049316 5.10469482 -43.12272461 4.93961426 -42.30078125 4.76953125 C-41.61153564 4.62104736 -40.92229004 4.47256348 -40.2121582 4.31958008 C-37.50084688 3.9278897 -34.73945805 4 -32 4 C-31.67 29.08 -31.34 54.16 -31 80 C-25.555 65.645 -25.555 65.645 -20 51 C-17.19997578 43.64910638 -14.39960118 36.29848058 -11.58959961 28.95141602 C-10.80455054 26.89771168 -10.02040754 24.84366081 -9.23706055 22.78930664 C-8.07536514 19.7428993 -6.91103872 16.69750969 -5.74609375 13.65234375 C-5.39719589 12.73589584 -5.04829803 11.81944794 -4.68882751 10.87522888 C-4.36410965 10.02815872 -4.03939178 9.18108856 -3.70483398 8.30834961 C-3.42268539 7.56975204 -3.1405368 6.83115448 -2.84983826 6.07017517 C-1.99549505 3.9890261 -1.03163154 1.99840841 0 0 Z " fill="#E5557F" transform="translate(332,386)"/>
<path d="M0 0 C18.63834631 -0.63695716 33.95586235 0.82299654 51 9 C51.64050293 9.30534668 52.28100586 9.61069336 52.94091797 9.92529297 C71.15458347 18.72735692 87.62852095 30.52737303 97 49 C97.3403125 49.65871094 97.680625 50.31742188 98.03125 50.99609375 C102.40310706 61.37925428 101.09720496 75.40549669 97.3828125 85.73046875 C76.08396735 136.08960261 28.140115 163.63914882 -20.49804688 183.61914062 C-71.92155214 203.89600522 -127.85370135 215.09756323 -183 218 C-184.77999115 218.10997952 -186.55994016 218.22064352 -188.33984375 218.33203125 C-204.54544473 219.27393875 -220.77477679 219.18589351 -237 219 C-237.95696777 218.99274902 -238.91393555 218.98549805 -239.89990234 218.97802734 C-283.1396778 218.48939552 -337.9712601 210.9403836 -370.37109375 179.71484375 C-382.46846809 166.74847087 -387.66534325 152.17477372 -387.33984375 134.65234375 C-386.52678635 118.0774434 -374.52433479 103.96873466 -363 93 C-356.36698624 87.01446498 -349.05152273 82.24323821 -341.3125 77.8125 C-340.61672852 77.41321289 -339.92095703 77.01392578 -339.20410156 76.60253906 C-337.50531688 75.66664626 -335.75583118 74.82390631 -334 74 C-333.01 74.495 -333.01 74.495 -332 75 C-333.07636719 75.73863281 -334.15273438 76.47726563 -335.26171875 77.23828125 C-344.61172156 83.71028503 -353.53168193 90.40812324 -362 98 C-362.74636719 98.65097656 -363.49273437 99.30195313 -364.26171875 99.97265625 C-370.48594097 105.73220176 -374.7774825 112.71636471 -379 120 C-379.48082031 120.82242188 -379.96164062 121.64484375 -380.45703125 122.4921875 C-384.61762495 130.98979583 -384.17588774 141.79760623 -382.4453125 150.92578125 C-378.95311481 161.08641358 -370.25392504 171.63494569 -361 177 C-359.57880859 177.83917969 -359.57880859 177.83917969 -358.12890625 178.6953125 C-323.91703347 197.31237401 -278.85970382 198.23539416 -240.8125 198.1875 C-239.84512909 198.18656342 -238.87775818 198.18562683 -237.881073 198.18466187 C-201.4798789 198.10866303 -165.47200282 194.3565424 -129.88427734 186.62060547 C-126.93366138 185.98572602 -123.97816303 185.38149571 -121.01953125 184.78515625 C-101.46305169 180.82884461 -81.96232342 176.50683528 -62.89599609 170.58691406 C-61.07595753 170.02351299 -59.25094993 169.47624074 -57.42578125 168.9296875 C-53.2678693 167.66596506 -49.13263219 166.34368087 -45 165 C-43.98953613 164.67435059 -42.97907227 164.34870117 -41.93798828 164.01318359 C-4.94042823 151.99500442 30.8252396 136.29670971 60 110 C60.80953125 109.27425781 61.6190625 108.54851562 62.453125 107.80078125 C72.81866137 97.99701346 85.16199265 82.45734635 86.23828125 67.7421875 C86.38663782 60.01202943 86.25040127 53.70204338 82 47 C81.59910156 46.36191406 81.19820313 45.72382813 80.78515625 45.06640625 C69.19326685 28.36736557 52.28864204 18.80931038 34 11 C32.47052734 10.32517578 32.47052734 10.32517578 30.91015625 9.63671875 C20.96222616 5.50135013 10.48798268 3.31297874 0 1 C0 0.67 0 0.34 0 0 Z " fill="#FBCB32" transform="translate(392,174)"/>
<path d="M0 0 C14.62436954 6.21939791 29.08891102 12.75662584 43.51641846 19.41638184 C55.47708967 24.93744156 67.46638666 30.38558341 79.51416016 35.71411133 C86.78202979 38.94445643 93.91659391 42.38299243 101 46 C100.67 46.99 100.34 47.98 100 49 C97.7245301 50.01960946 95.62521464 50.79044293 93.25 51.5 C92.53682617 51.71503174 91.82365234 51.93006348 91.08886719 52.15161133 C79.4873258 55.46011611 67.5508039 56.75676124 55.5390625 57.484375 C54.26901367 57.56212158 52.99896484 57.63986816 51.69042969 57.7199707 C49.17910278 57.86314912 46.6666004 57.98720261 44.15332031 58.09057617 C43.00702148 58.15220947 41.86072266 58.21384277 40.6796875 58.27734375 C39.14417236 58.34296509 39.14417236 58.34296509 37.57763672 58.40991211 C34.89406932 58.78613716 34.89406932 58.78613716 33.16455078 60.81469727 C29.88954772 66.96030573 32.44042899 75.99056195 33.28125 82.67260742 C33.94531649 88.08920049 34.5430361 93.54438149 34 99 C33.67 99.33 33.34 99.66 33 100 C26.99858327 99.61874223 22.39781322 98.18257083 17 95.62109375 C16.2788501 95.28956802 15.5577002 94.9580423 14.81469727 94.61647034 C12.5382102 93.56708062 10.2691583 92.50262988 8 91.4375 C6.44708288 90.71838889 4.89370122 90.00028006 3.33984375 89.28320312 C-0.44557073 87.53367106 -4.22439995 85.77060652 -8 84 C-8.08636719 85.09699219 -8.17273438 86.19398438 -8.26171875 87.32421875 C-8.40248072 88.77875906 -8.54447295 90.23318067 -8.6875 91.6875 C-8.74099609 92.40873047 -8.79449219 93.12996094 -8.84960938 93.87304688 C-9.2761841 97.93478012 -9.75366288 99.69338462 -12.39453125 102.98046875 C-15 105 -15 105 -18 105.625 C-22.17862962 104.75445216 -23.56887157 103.50368509 -26 100 C-26.63935569 96.87549656 -26.64685425 94.12354846 -26 91 C-24.125 88.4375 -24.125 88.4375 -22 87 C-21.34 87 -20.68 87 -20 87 C-19.93941406 86.10796875 -19.87882813 85.2159375 -19.81640625 84.296875 C-19.73261719 83.12640625 -19.64882812 81.9559375 -19.5625 80.75 C-19.48128906 79.58984375 -19.40007812 78.4296875 -19.31640625 77.234375 C-19.06752213 74.69022624 -18.71885058 72.44046752 -18 70 C-13.86117858 70.60865021 -10.69990949 72.08855092 -7 74 C-2.13608856 49.7839303 -0.77183231 24.64540408 0 0 Z " fill="#53128A" transform="translate(267,136)"/>
<path d="M0 0 C3.56701513 19.66036497 7.09191558 39.32759877 10.4694519 59.02151489 C10.7812155 60.83893995 11.09381585 62.65622167 11.40725708 64.47335815 C11.8457798 67.01825021 12.28088057 69.56370198 12.71484375 72.109375 C12.91120926 73.24582207 12.91120926 73.24582207 13.11154175 74.40522766 C13.60343759 77.31200531 14 80.0455964 14 83 C-6.13 87.95 -26.26 92.9 -47 98 C-48.35577997 92.57688011 -49.3416954 88.05621928 -49.86962891 82.609375 C-49.93819595 81.91880005 -50.006763 81.2282251 -50.07740784 80.51672363 C-50.29973024 78.26168331 -50.51337451 76.00592069 -50.7265625 73.75 C-50.88022739 72.1663005 -51.03431796 70.58264225 -51.18881226 68.99902344 C-51.51021219 65.69110863 -51.82748285 62.38283274 -52.14160156 59.07421875 C-52.54277834 54.85061985 -52.95271387 50.62792855 -53.36556435 46.40545654 C-53.68424417 43.13879574 -53.99903635 39.87176949 -54.312603 36.60461426 C-54.46230185 35.04811935 -54.6130031 33.49172049 -54.76475906 31.9354248 C-54.97670715 29.75416953 -55.18359609 27.57249001 -55.38916016 25.390625 C-55.50748199 24.15344727 -55.62580383 22.91626953 -55.74771118 21.64160156 C-56.01809503 17.73881163 -56.04219773 13.91066061 -56 10 C-53.01850825 9.16729629 -50.19103868 8.78687461 -47.10546875 8.5703125 C-45.68282715 8.46323975 -45.68282715 8.46323975 -44.23144531 8.35400391 C-42.72469238 8.24064697 -42.72469238 8.24064697 -41.1875 8.125 C-28.70161021 7.10108683 -16.87618056 5.50445486 -5.171875 0.76953125 C-3 0 -3 0 0 0 Z " fill="#7C188F" transform="translate(371,189)"/>
<path d="M0 0 C13.09973891 4.81615038 26.05192403 9.97945872 39 15.1875 C42.01973822 16.40095605 45.03969113 17.61387087 48.06005859 18.82575989 C49.92145562 19.5727331 51.78248366 20.32062671 53.64306641 21.06962585 C58.73811187 23.11548564 63.8513983 25.09276523 69 27 C69 27.66 69 28.32 69 29 C66.7209227 30.71160853 64.43648184 32.30404308 62.0625 33.875 C60.58000456 34.87392546 59.098257 35.87396157 57.6171875 36.875 C56.84987305 37.39191406 56.08255859 37.90882813 55.29199219 38.44140625 C51.72158451 40.86934432 48.20564692 43.3722212 44.6875 45.875 C35.53491661 52.36260054 26.2713999 58.68392986 17 65 C13.91559021 67.10259345 10.83241221 69.20697934 7.75 71.3125 C6.98469971 71.83440918 6.21939941 72.35631836 5.4309082 72.89404297 C0.92218555 75.97595465 -3.5614694 79.09064847 -8.02734375 82.234375 C-9.05118164 82.95326904 -10.07501953 83.67216309 -11.12988281 84.4128418 C-13.11817652 85.81071197 -15.1033832 87.21298698 -17.08496094 88.62036133 C-22.22169283 92.22847641 -27.21441098 95.52982213 -33 98 C-33.66 97.67 -34.32 97.34 -35 97 C-34.01 96.01 -34.01 96.01 -33 95 C-32.86217702 93.34408109 -32.80671241 91.68108206 -32.7890625 90.01953125 C-32.15831423 80.98641079 -28.64813835 73.03476133 -25.375 64.6875 C-24.70409987 62.9435661 -24.03460889 61.19908951 -23.36645508 59.45410156 C-21.97205942 55.820049 -20.56856931 52.18970536 -19.15771484 48.56201172 C-16.99568148 42.99898299 -14.86459384 37.42441724 -12.73828125 31.84765625 C-10.1490626 25.06757243 -7.55897994 18.2878326 -4.94921875 11.515625 C-4.6790242 10.8101503 -4.40882965 10.1046756 -4.13044739 9.37782288 C-2.89120033 6.17076004 -1.61833608 3.03613605 0 0 Z " fill="#F8AE46" transform="translate(332,386)"/>
<path d="M0 0 C9.78084413 -0.80759263 19.0974944 1.31421692 28.57397461 3.49023438 C30.99920587 4.03550871 30.99920587 4.03550871 33.49047852 4.30664062 C39.26191679 5.12987176 39.26191679 5.12987176 41.26367188 7.48974609 C42.29134708 9.54348741 43.00622585 11.55680604 43.6875 13.75 C43.96456787 14.54639893 44.24163574 15.34279785 44.52709961 16.16333008 C47.52777445 25.02837658 49.93618 34.08576587 52.26171875 43.14697266 C52.99820291 45.99305529 53.76100151 48.83085423 54.53125 51.66796875 C64 86.79465579 64 86.79465579 64 95 C58.0941787 93.14259911 52.46193598 90.99541886 46.8515625 88.3828125 C46.11352386 88.04377899 45.37548523 87.70474548 44.61508179 87.35543823 C42.28300945 86.28299978 39.95395489 85.20418904 37.625 84.125 C36.07311775 83.40971982 34.5210357 82.69487296 32.96875 81.98046875 C29.99288338 80.61040682 27.01802253 79.23819937 24.04394531 77.86425781 C19.0392717 75.55420444 14.02223313 73.27160312 9 71 C8.98541748 69.80624756 8.97083496 68.61249512 8.95581055 67.38256836 C8.89709118 62.88131258 8.81987513 58.38051936 8.73754883 53.87963867 C8.7046411 51.94514569 8.67650742 50.01056455 8.65356445 48.07592773 C8.46457556 32.5506912 7.54695292 18.62918027 0.98828125 4.29296875 C0 2 0 2 0 0 Z " fill="#1B0782" transform="translate(259,60)"/>
<path d="M0 0 C0.66 2.64 1.32 5.28 2 8 C2.33 8 2.66 8 3 8 C3.59791663 11.91294327 4.18558587 15.82727665 4.76391602 19.74316406 C5.05923009 21.72802233 5.36257874 23.71167977 5.66601562 25.6953125 C5.84970703 26.94570313 6.03339844 28.19609375 6.22265625 29.484375 C6.39547119 30.63647461 6.56828613 31.78857422 6.74633789 32.97558594 C7.13547251 37.61523914 7.13547251 37.61523914 6 40 C4.09594727 41.22924805 4.09594727 41.22924805 1.56640625 42.26171875 C0.61999268 42.65415771 -0.3264209 43.04659668 -1.30151367 43.45092773 C-2.33638916 43.85899658 -3.37126465 44.26706543 -4.4375 44.6875 C-5.50266846 45.11812744 -6.56783691 45.54875488 -7.6652832 45.99243164 C-15.60598735 49.15818201 -23.62125071 52.10832398 -31.6875 54.9375 C-32.72382568 55.30254639 -33.76015137 55.66759277 -34.82788086 56.04370117 C-42.12089023 58.53795811 -49.46343194 60.3949972 -57 62 C-58.56709741 53.46646057 -59.62138799 44.92394153 -60.43261719 36.28955078 C-60.62613406 34.23797727 -60.8282822 32.18737655 -61.03125 30.13671875 C-61.65105971 23.74148849 -62.18132004 17.42861976 -62 11 C-61.01 12.485 -61.01 12.485 -60 14 C-59.30731018 13.82460693 -58.61462036 13.64921387 -57.90093994 13.46850586 C-51.36940144 11.81557537 -44.8367353 10.16718776 -38.30276871 8.52388 C-34.94372122 7.67890192 -31.58513356 6.83218026 -28.22753906 5.98144531 C-24.36654267 5.00324204 -20.50364734 4.03267318 -16.640625 3.0625 C-14.83419525 2.60315063 -14.83419525 2.60315063 -12.99127197 2.13452148 C-11.30998199 1.71408569 -11.30998199 1.71408569 -9.59472656 1.28515625 C-8.60877502 1.03644775 -7.62282349 0.78773926 -6.60699463 0.53149414 C-4 0 -4 0 0 0 Z " fill="#62128C" transform="translate(385,272)"/>
<path d="M0 0 C0.15491729 7.61564733 0.30307662 15.23140185 0.4429636 22.84733963 C0.50814611 26.38495253 0.57552541 29.92249325 0.64819336 33.45996094 C0.7319239 37.54090503 0.80561669 41.62197994 0.87890625 45.703125 C0.90594131 46.95361633 0.93297638 48.20410767 0.96083069 49.49249268 C1.30799706 70.22852894 1.30799706 70.22852894 -1.33589172 73.80924988 C-4.14869199 75.82194479 -6.65457967 75.31456275 -10 75 C-12.93310547 73.95288086 -12.93310547 73.95288086 -15.8671875 72.46484375 C-17.54397583 71.63182739 -17.54397583 71.63182739 -19.25463867 70.78198242 C-19.84393158 70.48166107 -20.43322449 70.18133972 -21.04037476 69.87191772 C-24.21431101 68.25535745 -27.41103189 66.68492543 -30.60546875 65.109375 C-31.6115493 64.61113472 -31.6115493 64.61113472 -32.63795471 64.10282898 C-40.73515822 60.11071962 -48.95871977 56.3985918 -57.1875 52.6875 C-58.64502778 52.02923376 -60.10254751 51.37094969 -61.56005859 50.71264648 C-64.10708322 49.56248747 -66.65510134 48.4146369 -69.20385742 47.26831055 C-70.81441468 46.53777314 -72.41820871 45.79089564 -74 45 C-74 44.34 -74 43.68 -74 43 C-73.39752441 42.71914551 -72.79504883 42.43829102 -72.17431641 42.14892578 C-48.33543812 30.99636648 -26.41676751 18.46316296 -5.14941406 2.9453125 C-1.09960938 0 -1.09960938 0 0 0 Z " fill="#E24887" transform="translate(300,409)"/>
<path d="M0 0 C0.99912062 5.51718049 1.99597973 11.03476291 2.99072266 16.55273438 C3.32961514 18.43077709 3.66913109 20.3087074 4.00927734 22.18652344 C4.49739974 24.88186985 4.9832964 27.57760931 5.46875 30.2734375 C5.62186646 31.11619232 5.77498291 31.95894714 5.93273926 32.82723999 C7 38.77225659 7 38.77225659 7 41 C0.04591957 42.69851845 -6.91025601 44.38824279 -13.86791992 46.07202148 C-16.2320122 46.64521806 -18.59562716 47.22038719 -20.95874023 47.79760742 C-24.36577165 48.62944846 -27.77448636 49.45405756 -31.18359375 50.27734375 C-32.23083115 50.53466782 -33.27806854 50.79199188 -34.35704041 51.05711365 C-40.24646571 52.47109154 -45.96473291 53.47078303 -52 54 C-52.57541937 49.02017385 -53.14486688 44.03971287 -53.70898438 39.05859375 C-53.90138659 37.36700381 -54.09537008 35.67559289 -54.29101562 33.984375 C-54.5732562 31.54213001 -54.84965154 29.09928049 -55.125 26.65625 C-55.21249512 25.91008423 -55.29999023 25.16391846 -55.39013672 24.3951416 C-55.92713971 19.56616647 -56.07682369 14.85909818 -56 10 C-53.01850825 9.16729629 -50.19103868 8.78687461 -47.10546875 8.5703125 C-45.68282715 8.46323975 -45.68282715 8.46323975 -44.23144531 8.35400391 C-42.72469238 8.24064697 -42.72469238 8.24064697 -41.1875 8.125 C-28.70161021 7.10108683 -16.87618056 5.50445486 -5.171875 0.76953125 C-3 0 -3 0 0 0 Z " fill="#A72095" transform="translate(371,189)"/>
<path d="M0 0 C1.08994263 0.08302368 1.08994263 0.08302368 2.2019043 0.16772461 C42.40748378 3.18888044 83.52094246 5.4695197 123.72265625 1.4375 C129.4830821 0.87817172 135.21783777 0.90926977 141 1 C129.68911618 13.30428619 108.19409402 19.82907473 93 26 C92.09958984 26.37092773 91.19917969 26.74185547 90.27148438 27.12402344 C87.71069471 28.16956962 85.14033782 29.18482302 82.5625 30.1875 C81.43678589 30.64346558 81.43678589 30.64346558 80.28833008 31.10864258 C79.57572021 31.37572021 78.86311035 31.64279785 78.12890625 31.91796875 C77.52119385 32.15281982 76.91348145 32.3876709 76.28735352 32.62963867 C69.30585058 33.76006241 63.68719586 31.27077968 57.63671875 28.16796875 C56.85444916 27.77960846 56.07217957 27.39124817 55.26620483 26.99111938 C53.59689201 26.16142116 51.93009216 25.3266505 50.26565552 24.48721313 C45.92130119 22.29711469 41.55814094 20.14518784 37.1953125 17.9921875 C36.32852371 17.56353897 35.46173492 17.13489044 34.56867981 16.69325256 C23.20838319 11.09776477 11.63152932 6.00413832 0 1 C0 0.67 0 0.34 0 0 Z " fill="#E96F6E" transform="translate(106,397)"/>
<path d="M0 0 C0.69468579 4.83792195 1.38841764 9.67597942 2.08129883 14.51416016 C2.31671919 16.15710061 2.55239178 17.80000494 2.78833008 19.44287109 C3.12909585 21.81598411 3.46892843 24.18922926 3.80859375 26.5625 C3.91280136 27.28679199 4.01700897 28.01108398 4.12437439 28.75732422 C6.14952425 42.93184409 6.14952425 42.93184409 6.3125 48.25 C6.36857422 49.46429688 6.36857422 49.46429688 6.42578125 50.703125 C5.85364269 53.78952385 4.24119126 54.89162212 2 57 C-15.56377261 50.24041229 -33.11523008 43.46009326 -50.5 36.25 C-51.70809326 35.74952148 -52.91618652 35.24904297 -54.16088867 34.73339844 C-63.13542784 30.99146092 -63.13542784 30.99146092 -67 29 C-66.67 27.35 -66.34 25.7 -66 24 C-65.04037354 23.69408936 -64.08074707 23.38817871 -63.09204102 23.07299805 C-45.48711252 17.43812625 -17.47421115 0 0 0 Z " fill="#3B0C88" transform="translate(399,357)"/>
<path d="M0 0 C0.10699219 0.63679688 0.21398437 1.27359375 0.32421875 1.9296875 C0.54722656 2.61289063 0.77023438 3.29609375 1 4 C3.8371515 5.19595537 3.8371515 5.19595537 7 6 C8.34413468 6.64461166 9.68009728 7.30712265 11 8 C11.14634475 12.60985968 11.13999546 16.61468233 10.06835938 21.10424805 C9.00994623 25.77323895 8.30561319 30.43189596 7.7109375 35.1796875 C7.54871201 36.45804977 7.54871201 36.45804977 7.38320923 37.76223755 C7.15736548 39.55863899 6.93395983 41.35534849 6.71289062 43.15234375 C6.37997222 45.83493479 6.03015637 48.51496611 5.6796875 51.1953125 C4.46755631 60.8296159 3.68675195 70.16350469 4.31820679 79.87960815 C4.47714425 83.95231767 4.20562437 85.72792626 1.71240234 89.02685547 C-1 91 -1 91 -4.5625 91.0625 C-8.3367893 89.89590149 -9.87051297 89.32199976 -12 86 C-12.42769238 81.65179412 -12.23809071 78.80355616 -11 74.625 C-10.09879304 71.35812479 -9.89384835 69.10733212 -9.9375 65.7734375 C-9.94652344 64.87802246 -9.95554688 63.98260742 -9.96484375 63.06005859 C-9.97644531 62.38023926 -9.98804688 61.70041992 -10 61 C-10.81976318 60.61779297 -11.63952637 60.23558594 -12.48413086 59.84179688 C-42.59611391 45.80066176 -42.59611391 45.80066176 -57 39 C-57 37.68 -57 36.36 -57 35 C-45.40089479 32.79150164 -33.74221965 31.02903118 -22.0625 29.3125 C-21.28795471 29.19822662 -20.51340942 29.08395325 -19.71539307 28.96621704 C-17.48892247 28.63832399 -15.26212375 28.31278064 -13.03515625 27.98828125 C-11.7294165 27.79790283 -10.42367676 27.60752441 -9.07836914 27.41137695 C-6 27 -6 27 -4 27 C-3.96261719 26.30777344 -3.92523438 25.61554688 -3.88671875 24.90234375 C-3.31526859 16.39782085 -1.80604086 8.3146032 0 0 Z " fill="#E77669" transform="translate(151,104)"/>
<path d="M0 0 C1.23169922 0.41185547 1.23169922 0.41185547 2.48828125 0.83203125 C3.80505859 1.26515625 3.80505859 1.26515625 5.1484375 1.70703125 C8.72107904 2.9698206 12.26899474 4.27105872 15.80078125 5.64453125 C15.80078125 6.30453125 15.80078125 6.96453125 15.80078125 7.64453125 C13.52170395 9.35613978 11.23726309 10.94857433 8.86328125 12.51953125 C7.38078581 13.51845671 5.89903825 14.51849282 4.41796875 15.51953125 C3.6506543 16.03644531 2.88333984 16.55335938 2.09277344 17.0859375 C-1.47763424 19.51387557 -4.99357183 22.01675245 -8.51171875 24.51953125 C-17.66430214 31.00713179 -26.92781885 37.32846111 -36.19921875 43.64453125 C-39.28362854 45.7471247 -42.36680654 47.85151059 -45.44921875 49.95703125 C-46.21451904 50.47894043 -46.97981934 51.00084961 -47.76831055 51.53857422 C-52.2770332 54.6204859 -56.76068815 57.73517972 -61.2265625 60.87890625 C-62.76231934 61.95724731 -62.76231934 61.95724731 -64.32910156 63.05737305 C-66.31739527 64.45524322 -68.30260195 65.85751823 -70.28417969 67.26489258 C-75.42091158 70.87300766 -80.41362973 74.17435338 -86.19921875 76.64453125 C-86.85921875 76.31453125 -87.51921875 75.98453125 -88.19921875 75.64453125 C-87.20921875 74.65453125 -87.20921875 74.65453125 -86.19921875 73.64453125 C-86.04645918 71.92011068 -85.97725027 70.18797782 -85.94921875 68.45703125 C-85.2654542 60.62652211 -84.33909643 52.8719146 -79.19921875 46.64453125 C-73.50646333 41.9513603 -66.77576833 38.73073996 -60.27539062 35.31445312 C-55.22800592 32.57444429 -50.41505132 29.4804256 -45.57421875 26.39453125 C-35.18585429 19.84630085 -24.70767687 13.45449117 -14.19873047 7.10253906 C-13.33105293 6.57775719 -13.33105293 6.57775719 -12.44584656 6.04237366 C-10.87413855 5.09213296 -9.30171752 4.14307189 -7.72924805 3.1940918 C-1.98917175 -0.32151799 -1.98917175 -0.32151799 0 0 Z " fill="#FECE34" transform="translate(385.19921875,407.35546875)"/>
<path d="M0 0 C6.10056941 1.88368459 11.77729343 4.18137224 17.5 7 C26.16254622 11.18788821 34.93010845 15.09888723 43.75585938 18.9296875 C49.88452942 21.59817072 55.96041795 24.36389201 62.01013184 27.2059021 C66.99198833 29.54174668 71.99882684 31.81842258 77.015625 34.078125 C78.54824069 34.7706926 80.08079263 35.46340128 81.61328125 36.15625 C83.9553594 37.21501802 86.29830222 38.27163404 88.64404297 39.32226562 C90.95826996 40.35966137 93.26848202 41.40557097 95.578125 42.453125 C96.2811676 42.76566223 96.98421021 43.07819946 97.70855713 43.40020752 C104.18360945 46.35443139 104.18360945 46.35443139 106 49 C106.66235352 51.38842773 106.66235352 51.38842773 107.06640625 54.24609375 C107.22254395 55.31843262 107.37868164 56.39077148 107.53955078 57.49560547 C107.69149902 58.65205566 107.84344727 59.80850586 108 61 C108.15839355 62.18094238 108.31678711 63.36188477 108.47998047 64.57861328 C108.98050117 68.40484961 109.46073384 72.23323525 109.9375 76.0625 C111.00906993 84.56095088 112.09630785 93.04868453 113.5 101.5 C114.79262629 109.34084657 115.87711795 117.20698157 116.91113281 125.08544922 C117.09311868 126.46963499 117.27683099 127.85359504 117.46240234 129.23730469 C118.39243131 136.19304044 119.25879114 142.97694377 119 150 C118.67 150 118.34 150 118 150 C117.8858223 149.31049255 117.77164459 148.62098511 117.65400696 147.9105835 C116.5536013 141.26731675 115.45144948 134.62434156 114.34754658 127.98165512 C113.78068988 124.57027431 113.21440679 121.1588008 112.6496582 117.74707031 C111.99357962 113.78419165 111.33539797 109.82166622 110.67578125 105.859375 C110.56684666 105.20438522 110.45791206 104.54939545 110.34567642 103.8745575 C109.12460334 96.54442926 107.87285768 89.22110567 106.55224609 81.90820312 C106.31998825 80.62190002 106.08773041 79.33559692 105.84843445 78.01031494 C105.40505413 75.5703362 104.9582914 73.13096892 104.50764465 70.69232178 C104.21031685 69.06233246 104.21031685 69.06233246 103.90698242 67.39941406 C103.73132248 66.44939514 103.55566254 65.49937622 103.37467957 64.52056885 C103 62 103 62 103 58 C102.16339844 58.32613281 101.32679688 58.65226562 100.46484375 58.98828125 C84.25049412 65.07539589 68.167781 66.74824783 51 68 C49.47135322 68.11457068 47.94270729 68.2291528 46.4140625 68.34375 C43.27660463 68.57285443 40.13899814 68.79327222 37 69 C36.70701919 76.68260803 37.4227782 84.03487163 38.5625 91.6171875 C39.80301676 101.85827577 38.90089549 112.32235116 38.16015625 122.5703125 C38.07374374 123.81320038 37.98733124 125.05608826 37.89830017 126.3366394 C37.6238986 130.26640079 37.3431656 134.19568161 37.0625 138.125 C36.8778685 140.76690009 36.69362054 143.40882701 36.50976562 146.05078125 C36.33108056 148.598983 36.15205563 151.14716094 35.97265625 153.6953125 C35.8491555 155.45199753 35.8491555 155.45199753 35.72315979 157.24417114 C35.22763862 164.17098891 34.65817778 171.08671171 34 178 C33.67 178 33.34 178 33 178 C33 155.56 33 133.12 33 110 C30.03 110 27.06 110 24 110 C21.11489141 109.01934476 18.61241504 108.03532493 15.90234375 106.71875 C15.1826088 106.38580933 14.46287384 106.05286865 13.72132874 105.70983887 C11.45222571 104.65575611 9.19508837 103.57848883 6.9375 102.5 C5.38940542 101.77577365 3.84058243 101.05310222 2.29101562 100.33203125 C-1.48130859 98.5725358 -5.2430997 96.79217776 -9 95 C-9 93.02 -9 91.04 -9 89 C-4.81207186 89.63360695 -1.46800116 91.05805369 2.33203125 92.90625 C3.5551847 93.4912072 4.77849708 94.07583218 6.00195312 94.66015625 C7.90626822 95.57742053 9.80872259 96.49815629 11.70825195 97.42529297 C21.41933943 102.22301485 21.41933943 102.22301485 32 104 C32.20018856 97.69406021 31.79175334 91.68074814 31 85.4375 C29.05687098 69.63924092 29.05687098 69.63924092 31.53710938 65.32836914 C34.77330659 62.26893092 37.52798036 62.1550484 41.78125 61.99609375 C42.54347366 61.94751724 43.30569733 61.89894073 44.09101868 61.84889221 C45.71852274 61.74625589 47.34667038 61.65343307 48.97525024 61.56958008 C53.18904864 61.3491389 57.39687262 61.04848115 61.60546875 60.74609375 C62.83918465 60.6590065 62.83918465 60.6590065 64.0978241 60.57015991 C70.41868592 60.1005681 76.60426664 59.30345758 82.8125 58 C83.555 57.84587646 84.2975 57.69175293 85.0625 57.53295898 C89.89884763 56.44013043 94.39958899 54.8133759 99 53 C99 52.34 99 51.68 99 51 C78.24897247 41.42937144 57.47605988 31.91753567 36.60595703 22.60888672 C30.69626207 19.97213047 24.78946994 17.32890375 18.88354492 14.68371582 C16.98457603 13.83357525 15.08508963 12.98459957 13.18554688 12.13574219 C12.04021484 11.62301758 10.89488281 11.11029297 9.71484375 10.58203125 C8.70542725 10.13061768 7.69601074 9.6792041 6.65600586 9.21411133 C4.41068213 8.18773069 2.19854538 7.12230694 0 6 C0 4.02 0 2.04 0 0 Z " fill="#F7C634" transform="translate(268,131)"/>
<path d="M0 0 C0.87454834 0.00523682 1.74909668 0.01047363 2.65014648 0.01586914 C3.59438477 0.0190918 4.53862305 0.02231445 5.51147461 0.02563477 C6.50469727 0.03401367 7.49791992 0.04239258 8.52124023 0.05102539 C9.51833008 0.05553711 10.51541992 0.06004883 11.54272461 0.06469727 C14.01478872 0.07652532 16.48673541 0.0930069 18.95874023 0.11352539 C21.83431408 5.13401176 24.55383562 10.08025033 26.64624023 15.48852539 C27.04198242 16.48625977 27.43772461 17.48399414 27.84545898 18.51196289 C31.05676849 28.90083083 31.21118443 39.03680031 31.08374023 49.80102539 C31.07368315 51.29255579 31.06456216 52.78409281 31.05639648 54.27563477 C31.03461567 57.88840513 31.00023873 61.50092132 30.95874023 65.11352539 C26.88934578 64.47504172 23.54709965 63.15916728 19.81811523 61.42602539 C18.66569336 60.89235352 17.51327148 60.35868164 16.32592773 59.80883789 C15.13225586 59.24938477 13.93858398 58.68993164 12.70874023 58.11352539 C11.4875925 57.54797527 10.26624023 56.98286658 9.04467773 56.41821289 C0.10494559 52.25973075 0.10494559 52.25973075 -1.04125977 51.11352539 C-2.82018785 38.90774145 -3.22799861 26.68511884 -3.22875977 14.36352539 C-3.22948486 13.07220703 -3.23020996 11.78088867 -3.23095703 10.45043945 C-3.16952188 0.17627409 -3.16952188 0.17627409 0 0 Z " fill="#1B0782" transform="translate(224.041259765625,58.886474609375)"/>
<path d="M0 0 C-4.61258354 5.15815793 -10.18631378 8.71034574 -15.9375 12.5 C-17.53452759 13.55513794 -17.53452759 13.55513794 -19.16381836 14.6315918 C-36.01549618 25.6784562 -53.13835589 35.59221776 -71.52099609 43.87988281 C-73.69860361 44.86381656 -75.85894231 45.87795846 -78.01953125 46.8984375 C-86.54905597 50.65182556 -86.54905597 50.65182556 -91.25 49.3125 C-92.85470608 48.58720912 -94.43369667 47.80487412 -96 47 C-97.44171139 46.328376 -98.88598738 45.6622444 -100.33203125 45 C-104.57726497 43.0452364 -108.79213846 41.03388026 -113 39 C-110.04339523 37.02893015 -107.5014734 35.98802081 -104.171875 34.78515625 C-102.99061035 34.35187012 -101.8093457 33.91858398 -100.59228516 33.47216797 C-99.96574036 33.24285583 -99.33919556 33.0135437 -98.69366455 32.77728271 C-80.37591426 26.04092933 -62.59726762 18.3987021 -46.15625 7.77734375 C-39.96811043 4.29268595 -33.6850753 3.61018099 -26.75 3 C-20.4818495 2.40257351 -14.35977342 1.60716666 -8.1796875 0.375 C-5.43276216 -0.09758931 -2.77964034 -0.15025083 0 0 Z " fill="#E76177" transform="translate(290,392)"/>
<path d="M0 0 C0.16964368 4.90697239 0.32995035 9.81413606 0.48217773 14.72167969 C0.53504593 16.3858225 0.59032022 18.04989091 0.64819336 19.71386719 C1.53956243 45.47830877 1.53956243 45.47830877 -1.10717773 49.81347656 C-4.13145789 51.70925904 -6.50335939 51.34367611 -10 51 C-13.23461914 49.81005859 -13.23461914 49.81005859 -16.53515625 48.1484375 C-17.13573349 47.85192291 -17.73631073 47.55540833 -18.35508728 47.24990845 C-20.26430918 46.30448469 -22.16353623 45.34083764 -24.0625 44.375 C-26.55048653 43.12695886 -29.0422855 41.88668943 -31.53515625 40.6484375 C-32.14565826 40.34371521 -32.75616028 40.03899292 -33.38516235 39.72503662 C-39.80933307 36.54547456 -46.38087573 33.74751295 -53 31 C-50.46519405 29.31012937 -48.00038245 27.9178027 -45.30078125 26.5234375 C-32.84583306 19.99424265 -21.06878472 13.00276423 -9.4934082 5.03076172 C-8.06194458 4.0468042 -8.06194458 4.0468042 -6.6015625 3.04296875 C-5.33820068 2.16161255 -5.33820068 2.16161255 -4.04931641 1.26245117 C-2 0 -2 0 0 0 Z " fill="#DF3A92" transform="translate(300,433)"/>
<path d="M0 0 C0.50604924 2.39469729 1.00499517 4.79051717 1.5 7.1875 C1.64308594 7.86103516 1.78617187 8.53457031 1.93359375 9.22851562 C2.68069842 12.87509793 3.17352282 16.27648957 3 20 C-3.75280334 22.39130893 -10.56843573 24.23130563 -17.52734375 25.91796875 C-19.13253624 26.31113029 -19.13253624 26.31113029 -20.77015686 26.7122345 C-23.01438224 27.26104567 -25.25905468 27.80803165 -27.50415039 28.35327148 C-30.95248964 29.19114215 -34.39917624 30.035568 -37.84570312 30.88085938 C-40.03115598 31.41444773 -42.21669966 31.94766425 -44.40234375 32.48046875 C-45.43560287 32.73354294 -46.468862 32.98661713 -47.53343201 33.24736023 C-48.48524857 33.47792618 -49.43706512 33.70849213 -50.41772461 33.94604492 C-51.25661728 34.15017502 -52.09550995 34.35430511 -52.95982361 34.56462097 C-55 35 -55 35 -57 35 C-57.33801152 32.45887768 -57.67053379 29.91723254 -58 27.375 C-58.09539062 26.66214844 -58.19078125 25.94929688 -58.2890625 25.21484375 C-58.42441406 24.16103516 -58.42441406 24.16103516 -58.5625 23.0859375 C-58.64628906 22.4470459 -58.73007812 21.8081543 -58.81640625 21.14990234 C-59.04883466 18.42814089 -59.02719996 15.73019646 -59 13 C-51.40306124 11.1405905 -43.80398999 9.29010101 -36.20336914 7.44580078 C-33.61773258 6.81795904 -31.03296842 6.18680702 -28.44848633 5.55419922 C-24.73386879 4.64534138 -21.0175326 3.74383629 -17.30078125 2.84375 C-16.14540359 2.55939087 -14.99002594 2.27503174 -13.79963684 1.98205566 C-12.71889389 1.72178589 -11.63815094 1.46151611 -10.5246582 1.19335938 C-9.57645706 0.96241577 -8.62825592 0.73147217 -7.65132141 0.49353027 C-5.03410736 0.00634892 -2.6550741 -0.09190504 0 0 Z " fill="#8C1B91" transform="translate(378,230)"/>
<path d="M0 0 C13.64341028 7.70123316 26.37507526 20.89191251 31 36 C24.09769115 35.22865903 17.37880033 33.94129053 10.58886719 32.49609375 C5.77784789 31.48958953 1.16054712 30.84448991 -3.75 30.5 C-7.46775319 29.92040645 -8.67287104 29.3645645 -11.21875 26.52734375 C-12.58501221 24.44904873 -13.89222967 22.33084805 -15.140625 20.1796875 C-19.56917891 12.60648817 -25.26912802 7.09160512 -33 3 C-32 0 -32 0 -28.75 -2.1875 C-19.41021052 -6.5148801 -8.87907034 -4.45282719 0 0 Z " fill="#F1FCFC" transform="translate(267,30)"/>
<path d="M0 0 C0.02505615 0.81041748 0.0501123 1.62083496 0.07592773 2.45581055 C0.17237738 5.52929554 0.27150604 8.60268051 0.37231445 11.67602539 C0.43575206 13.63356265 0.49623818 15.59119486 0.55664062 17.54882812 C0.82699568 25.72186952 1.29682668 33.85268022 2 42 C-2.6779305 41.35421934 -6.64286343 39.46014671 -10.85546875 37.4375 C-11.96973991 36.91047485 -11.96973991 36.91047485 -13.10652161 36.37280273 C-15.46935216 35.25372662 -17.82842442 34.12696686 -20.1875 33 C-21.78556786 32.24168272 -23.38387274 31.48386472 -24.98242188 30.7265625 C-35.93586944 25.53206528 -35.93586944 25.53206528 -39 24 C-38.79123187 21.59916653 -38.45622786 19.36066526 -38 17 C-37.86980469 16.16984375 -37.73960937 15.3396875 -37.60546875 14.484375 C-36.80925321 11.37401255 -36.04086349 9.50334607 -34 7 C-28.84383661 4.50601771 -23.57459635 3.21655556 -18 2 C-17.01257813 1.75636719 -16.02515625 1.51273438 -15.0078125 1.26171875 C-9.90532002 0.09339103 -5.22427147 -0.06036448 0 0 Z " fill="#1C0882" transform="translate(209,62)"/>
<path d="M0 0 C0.50478485 2.41575607 1.00397642 4.83244361 1.5 7.25 C1.64308594 7.93191406 1.78617187 8.61382812 1.93359375 9.31640625 C2.61251049 12.64633121 3 15.58332551 3 19 C-4.15071593 20.86155049 -11.3042936 22.71177396 -18.45996094 24.55419922 C-20.89325022 25.18213438 -23.32587581 25.81264737 -25.7578125 26.44580078 C-29.25609251 27.35609668 -32.75666452 28.25705681 -36.2578125 29.15625 C-37.34240753 29.44060913 -38.42700256 29.72496826 -39.54446411 30.01794434 C-40.56506927 30.27821411 -41.58567444 30.53848389 -42.63720703 30.80664062 C-43.52989288 31.03758423 -44.42257874 31.26852783 -45.34231567 31.50646973 C-48.27779666 32.05158666 -51.02087694 32.08338174 -54 32 C-54.90833969 29.27498092 -55.18359985 27.37766029 -55.31640625 24.55078125 C-55.35830078 23.70322266 -55.40019531 22.85566406 -55.44335938 21.98242188 C-55.48267578 21.10134766 -55.52199219 20.22027344 -55.5625 19.3125 C-55.60568359 18.41982422 -55.64886719 17.52714844 -55.69335938 16.60742188 C-55.79935353 14.40509892 -55.90142051 12.20266527 -56 10 C-53.01850825 9.16729629 -50.19103868 8.78687461 -47.10546875 8.5703125 C-45.68282715 8.46323975 -45.68282715 8.46323975 -44.23144531 8.35400391 C-42.72469238 8.24064697 -42.72469238 8.24064697 -41.1875 8.125 C-28.70161021 7.10108683 -16.87618056 5.50445486 -5.171875 0.76953125 C-3 0 -3 0 0 0 Z " fill="#C92699" transform="translate(371,189)"/>
<path d="M0 0 C0.33 0 0.66 0 1 0 C1.07476562 1.10472656 1.14953125 2.20945312 1.2265625 3.34765625 C2.73549888 22.27025511 7.97778046 39.98611332 14.484375 57.75 C15.83841801 61.46108085 16.96586692 65.18790157 18 69 C6.43702527 67.29013313 -4.71199566 58.91226433 -11.69140625 49.7890625 C-16.74201255 42.04767735 -17.53454807 33.06153757 -16 24 C-12.98345456 15.08190557 -6.29083175 6.80853112 0 0 Z " fill="#EDF9FB" transform="translate(31,282)"/>
<path d="M0 0 C0.33 0 0.66 0 1 0 C1.12713709 19.36591341 0.89416116 38.64949647 0 58 C-5.47361889 57.4560915 -9.58317001 55.44606199 -14.375 52.9375 C-15.11105469 52.56044922 -15.84710938 52.18339844 -16.60546875 51.79492188 C-18.40739646 50.87055636 -20.20423099 49.93627386 -22 49 C-22.27717 40.14788317 -21.19676284 31.61779427 -20 22.875 C-19.80669557 21.42716279 -19.61398283 19.97924646 -19.421875 18.53125 C-18.95472752 15.01989578 -18.47960693 11.50967679 -18 8 C-17.40251953 7.80809082 -16.80503906 7.61618164 -16.18945312 7.41845703 C-7.46566369 4.86131462 -7.46566369 4.86131462 0 0 Z " fill="#1C0782" transform="translate(177,122)"/>
<path d="M0 0 C0.86625 0.28359375 1.7325 0.5671875 2.625 0.859375 C3.49125 1.13265625 4.3575 1.4059375 5.25 1.6875 C7.625 2.609375 7.625 2.609375 10.625 4.609375 C10.07457031 4.89167969 9.52414062 5.17398437 8.95703125 5.46484375 C1.59618756 9.35639057 -5.44333273 13.69787822 -12.50585938 18.10107422 C-19.9909196 22.76434444 -27.51848197 27.35487672 -35.0625 31.921875 C-45.71919596 38.37500465 -56.34340058 44.87862702 -66.93823242 51.43286133 C-81.79788055 60.609375 -81.79788055 60.609375 -84.375 60.609375 C-83.91863464 59.212897 -83.45980512 57.8172242 -83 56.421875 C-82.74476563 55.64457031 -82.48953125 54.86726563 -82.2265625 54.06640625 C-81.94554687 53.25558594 -81.66453125 52.44476563 -81.375 51.609375 C-81.11332031 50.79154541 -80.85164063 49.97371582 -80.58203125 49.13110352 C-79.15831406 46.15667494 -78.06017684 45.39365144 -75.2109375 43.8046875 C-74.34903809 43.31194336 -73.48713867 42.81919922 -72.59912109 42.31152344 C-71.65891113 41.79106445 -70.71870117 41.27060547 -69.75 40.734375 C-67.72752394 39.57839016 -65.70674598 38.41943034 -63.6875 37.2578125 C-62.64078125 36.65807617 -61.5940625 36.05833984 -60.515625 35.44042969 C-55.52103588 32.52847241 -50.63706945 29.44730223 -45.75 26.359375 C-35.35865741 19.81571925 -24.88356319 13.41939843 -14.37451172 7.06738281 C-13.50683418 6.54260094 -13.50683418 6.54260094 -12.62162781 6.00721741 C-11.0499198 5.05697671 -9.47749877 4.10791564 -7.9050293 3.15893555 C-2.16572069 -0.35620406 -2.16572069 -0.35620406 0 0 Z " fill="#FBBD3C" transform="translate(385.375,407.390625)"/>
<path d="M0 0 C-0.4833978 11.10542835 -1.32972208 22.00535504 -3 33 C-9.48322776 31.0122325 -15.52745782 28.49743208 -21.62890625 25.55078125 C-22.50401352 25.13330124 -23.37912079 24.71582123 -24.28074646 24.28569031 C-27.04371434 22.96620935 -29.80313388 21.63949395 -32.5625 20.3125 C-34.44833681 19.41032448 -36.33440247 18.50862716 -38.22070312 17.60742188 C-42.81646483 15.41046447 -47.40906134 13.20701714 -52 11 C-52 9.68 -52 8.36 -52 7 C-41.85560711 5.13501412 -31.68725401 3.4268657 -21.5 1.8125 C-20.40316895 1.63364258 -19.30633789 1.45478516 -18.17626953 1.27050781 C-12.03249718 0.31092333 -6.21775797 -0.18940649 0 0 Z " fill="#1E0981" transform="translate(146,132)"/>
<path d="M0 0 C0.33 0 0.66 0 1 0 C1 12.54 1 25.08 1 38 C-11.5137353 41.57535294 -24.00480611 44.76370815 -36.75 47.375 C-38.0289917 47.63748535 -39.3079834 47.8999707 -40.62573242 48.17041016 C-49.69453439 50 -49.69453439 50 -52 50 C-52 49.34 -52 48.68 -52 48 C-50.32118837 46.62367695 -48.57808258 45.32558818 -46.8125 44.0625 C-35.71719451 35.91272028 -25.79629025 26.97810155 -16.0625 17.25 C-15.16217041 16.35055664 -14.26184082 15.45111328 -13.33422852 14.52441406 C-9.57461649 10.7328188 -5.8785361 6.94120607 -2.43359375 2.859375 C-1.63050781 1.91578125 -0.82742188 0.9721875 0 0 Z " fill="#EB766A" transform="translate(299,304)"/>
<path d="M0 0 C10.75036144 3.86635806 19.73192186 12.9638146 25.0546875 22.88671875 C28.35201611 30.2580195 28.66879292 40.50357886 26.32324219 48.22900391 C23.12916247 56.25037626 18.53187917 64.24437313 12 70 C11.67 70 11.34 70 11 70 C10.97421875 68.86949219 10.9484375 67.73898437 10.921875 66.57421875 C10.24379796 45.0957317 7.11508346 24.18875804 0.48730469 3.72631836 C0 2 0 2 0 0 Z " fill="#EEFAFC" transform="translate(441,199)"/>
<path d="M0 0 C0.33 0.66 0.66 1.32 1 2 C1.99 1.67 2.98 1.34 4 1 C4 1.66 4 2.32 4 3 C4.99 3.33 5.98 3.66 7 4 C6.58226641 7.13300196 6.16194361 10.23384196 5.50805664 13.32739258 C3.93072177 20.89040039 3.73021934 28.16787321 3.8125 35.875 C3.81894531 37.1333667 3.82539063 38.3917334 3.83203125 39.68823242 C3.91966356 50.47590625 4.34105241 61.23326708 5 72 C0.71 70.35 -3.58 68.7 -8 67 C-8.80775305 57.16703773 -9.12781475 47.4925513 -9.0625 37.625 C-9.05746427 36.29166839 -9.0529051 34.95833489 -9.04882812 33.625 C-9.03720355 30.41661639 -9.02086669 27.20833449 -9 24 C-9.66 23.67 -10.32 23.34 -11 23 C-10.01 23 -9.02 23 -8 23 C-8.061875 21.906875 -8.12375 20.81375 -8.1875 19.6875 C-8.16367063 13.00336233 -7.13619833 6.13619833 -2.3125 1.3125 C-1.1678125 0.6628125 -1.1678125 0.6628125 0 0 Z " fill="#F3A34F" transform="translate(218,38)"/>
<path d="M0 0 C9.6857897 3.61818332 19.35722003 7.26837624 29 11 C27.84167575 14.47497274 27.30931691 14.7005357 24.265625 16.4609375 C23.47333496 16.92669189 22.68104492 17.39244629 21.86474609 17.87231445 C21.00187988 18.36820068 20.13901367 18.86408691 19.25 19.375 C17.43383955 20.43699775 15.61877244 21.50086702 13.8046875 22.56640625 C12.8569043 23.12215332 11.90912109 23.67790039 10.93261719 24.25048828 C7.95013981 26.0297451 5.00679355 27.86075989 2.0703125 29.71484375 C0.64090332 30.61614014 0.64090332 30.61614014 -0.81738281 31.53564453 C-2.67190742 32.70931671 -4.52290452 33.88858353 -6.37011719 35.07373047 C-7.20961914 35.60240723 -8.04912109 36.13108398 -8.9140625 36.67578125 C-9.6560791 37.14927002 -10.3980957 37.62275879 -11.16259766 38.1105957 C-11.76894043 38.40409912 -12.3752832 38.69760254 -13 39 C-13.66 38.67 -14.32 38.34 -15 38 C-13.18786785 33.23010864 -11.37301804 28.46126365 -9.55566406 23.69335938 C-8.93805712 22.07189814 -8.32118814 20.45015562 -7.70507812 18.828125 C-6.81835615 16.49404392 -5.92896789 14.1609939 -5.0390625 11.828125 C-4.76502594 11.10506165 -4.49098938 10.38199829 -4.20864868 9.63702393 C-2.94850561 6.34081476 -1.66902898 3.11270383 0 0 Z " fill="#F29557" transform="translate(332,386)"/>
<path d="M0 0 C0 1.65 0 3.3 0 5 C-9.88801739 7.1276711 -19.8778087 8.55763468 -29.875 10.0625 C-32.54870804 10.4654832 -35.22229703 10.86918483 -37.89553833 11.2752533 C-39.54912958 11.52641142 -41.20298906 11.77581171 -42.85714722 12.02320862 C-46.28663263 12.54386061 -49.64499816 13.12113153 -53 14 C-53 14.66 -53 15.32 -53 16 C-48.91892135 17.98383206 -44.83543435 19.96265547 -40.75 21.9375 C-40.14263 22.23112427 -39.53526001 22.52474854 -38.90948486 22.82727051 C-29.94745338 27.15425827 -20.93890165 31.35797769 -11.83105469 35.37084961 C-6.09372778 37.90627222 -6.09372778 37.90627222 -5 39 C-4.95919217 40.99958364 -4.95745644 43.00045254 -5 45 C-12.71438395 42.67343976 -19.72141032 39.37390557 -26.9375 35.8125 C-37.53095663 30.64258102 -48.18211219 25.68068087 -59 21 C-59.10824843 19.3973218 -59.18570645 17.79254252 -59.25 16.1875 C-59.29640625 15.29417969 -59.3428125 14.40085938 -59.390625 13.48046875 C-59 11 -59 11 -57.41992188 9.43994141 C-54.27819035 7.57049704 -51.49353358 7.10092916 -47.890625 6.48046875 C-47.19205383 6.35834518 -46.49348267 6.23622162 -45.77374268 6.11039734 C-38.22405228 4.8148021 -30.64417908 3.70311928 -23.05908203 2.63745117 C-20.70924551 2.30676473 -18.36047396 1.9691325 -16.01171875 1.63085938 C-14.50266153 1.4162629 -12.99354899 1.20205499 -11.484375 0.98828125 C-10.78963074 0.88832352 -10.09488647 0.78836578 -9.37908936 0.68537903 C-6.1980295 0.24203443 -3.22319261 0 0 0 Z " fill="#F9C833" transform="translate(147,126)"/>
<path d="M0 0 C1.43931117 0.45261358 2.87638999 0.91232979 4.3125 1.375 C5.11300781 1.63023437 5.91351563 1.88546875 6.73828125 2.1484375 C9 3 9 3 12 5 C12.3215332 6.99829102 12.3215332 6.99829102 12.23828125 9.44140625 C12.19695068 10.78936279 12.19695068 10.78936279 12.15478516 12.16455078 C11.90370254 16.76403572 11.59663238 21.34914738 11.1875 25.9375 C11.10129395 26.92371338 11.01508789 27.90992676 10.92626953 28.92602539 C10.05283422 38.35897532 8.63267154 47.67200325 7 57 C3.04 55.35 -0.92 53.7 -5 52 C-4.45288817 45.23695263 -3.90143411 38.47427871 -3.34594727 31.71191406 C-3.15757676 29.41123042 -2.97039466 27.11044917 -2.78442383 24.80957031 C-2.51695896 21.5029913 -2.24522685 18.19678655 -1.97265625 14.890625 C-1.89032242 13.86132874 -1.80798859 12.83203247 -1.72315979 11.77154541 C-1.64315231 10.81085144 -1.56314484 9.85015747 -1.48071289 8.86035156 C-1.41187393 8.01651917 -1.34303497 7.17268677 -1.27210999 6.30328369 C-1.01517106 4.12841588 -0.58406473 2.10808702 0 0 Z " fill="#EA7769" transform="translate(254,154)"/>
<path d="M0 0 C0.66 3.63 1.32 7.26 2 11 C-5.45464013 12.85881146 -12.91111195 14.71001738 -20.36938477 16.55419922 C-22.90636151 17.182644 -25.44282503 17.81316435 -27.97875977 18.44580078 C-31.62383229 19.35475016 -35.27068495 20.2562205 -38.91796875 21.15625 C-40.05147263 21.44060913 -41.1849765 21.72496826 -42.35282898 22.01794434 C-43.41355118 22.27821411 -44.47427338 22.53848389 -45.56713867 22.80664062 C-46.49757492 23.03758423 -47.42801117 23.26852783 -48.38664246 23.50646973 C-50.99061756 23.99822813 -53.35706039 24.09124205 -56 24 C-57.17683626 20.32238669 -57.03578346 16.83330292 -57 13 C-56.35901367 12.8548999 -55.71802734 12.7097998 -55.05761719 12.56030273 C-40.62359518 9.28367252 -26.23931082 5.86686315 -11.90332031 2.18530273 C-10.22061035 1.75713257 -10.22061035 1.75713257 -8.50390625 1.3203125 C-7.51205322 1.06523926 -6.5202002 0.81016602 -5.49829102 0.54736328 C-3 0 -3 0 0 0 Z " fill="#B72397" transform="translate(374,208)"/>
<path d="M0 0 C0.66 3.63 1.32 7.26 2 11 C0.91501221 11.10812012 -0.16997559 11.21624023 -1.2878418 11.32763672 C-6.76927444 12.01624343 -12.04837726 13.39413948 -17.39453125 14.7578125 C-19.58784443 15.30617437 -21.78120521 15.85434592 -23.97460938 16.40234375 C-27.40985943 17.26639932 -30.84441015 18.13308825 -34.27807617 19.00341797 C-37.60683808 19.84526098 -40.93797276 20.67711759 -44.26953125 21.5078125 C-45.30076614 21.77232208 -46.33200104 22.03683167 -47.39448547 22.30935669 C-48.34945419 22.54645355 -49.30442291 22.78355042 -50.28833008 23.02783203 C-51.54786247 23.34640671 -51.54786247 23.34640671 -52.83283997 23.67141724 C-55 24 -55 24 -58 23 C-58.33 19.7 -58.66 16.4 -59 13 C-51.40288082 11.14131245 -43.80399366 9.2901019 -36.20336914 7.44580078 C-33.61773258 6.81795904 -31.03296842 6.18680702 -28.44848633 5.55419922 C-24.73386879 4.64534138 -21.0175326 3.74383629 -17.30078125 2.84375 C-16.14540359 2.55939087 -14.99002594 2.27503174 -13.79963684 1.98205566 C-12.71889389 1.72178589 -11.63815094 1.46151611 -10.5246582 1.19335938 C-9.57645706 0.96241577 -8.62825592 0.73147217 -7.65132141 0.49353027 C-5 0 -5 0 0 0 Z " fill="#991D93" transform="translate(378,230)"/>
<path d="M0 0 C7.38710623 2.24691148 14.08826009 5.32930233 21 8.75 C23.40091131 9.9223558 25.80269147 11.09254034 28.20703125 12.2578125 C28.83350052 12.56145721 29.45996979 12.86510193 30.10542297 13.177948 C37.57654475 16.78326414 45.12994013 20.20566605 52.6875 23.625 C54.0840165 24.25839273 55.48050103 24.89185593 56.87695312 25.52539062 C63.37282386 28.46942142 69.87712106 31.3930233 76.39453125 34.2890625 C77.51706299 34.79228027 78.63959473 35.29549805 79.79614258 35.81396484 C81.87925728 36.74765993 83.9661691 37.6729449 86.05737305 38.58837891 C86.96656494 38.99749512 87.87575684 39.40661133 88.8125 39.828125 C89.60269531 40.1777832 90.39289063 40.52744141 91.20703125 40.88769531 C93 42 93 42 94 45 C93.5625 47.1875 93.5625 47.1875 93 49 C87.92298714 47.44128563 83.22651457 45.35278949 78.4296875 43.10546875 C77.60365524 42.72162018 76.77762299 42.33777161 75.92655945 41.94229126 C73.24131444 40.69366041 70.55817885 39.44056374 67.875 38.1875 C66.01699816 37.32283314 64.15884278 36.45849612 62.30053711 35.59448242 C57.70400789 33.45658108 53.10902904 31.31537464 48.51470947 29.17272949 C42.53213637 26.38276907 36.54798371 23.59621022 30.5625 20.8125 C29.45406738 20.296875 28.34563477 19.78125 27.20361328 19.25 C18.18117401 15.06282089 9.11152079 10.98930342 0 7 C0 4.69 0 2.38 0 0 Z " fill="#FAC833" transform="translate(154,171)"/>
<path d="M0 0 C1.85625 0.0309375 1.85625 0.0309375 3.75 0.0625 C3.47285156 1.0525 3.19570312 2.0425 2.91015625 3.0625 C2.54398093 4.39575374 2.17811196 5.72909166 1.8125 7.0625 C1.63009766 7.71089844 1.44769531 8.35929687 1.25976562 9.02734375 C-0.01162672 13.69682109 -0.73964941 18.24908809 -1.25 23.0625 C-2.03125244 23.23378418 -2.81250488 23.40506836 -3.61743164 23.58154297 C-7.18295566 24.3645994 -10.74772984 25.15101915 -14.3125 25.9375 C-15.54162109 26.20691406 -16.77074219 26.47632812 -18.03710938 26.75390625 C-23.82933941 28.0341296 -29.57632895 29.32583397 -35.25 31.0625 C-32.0597398 20.50057059 -25.21956712 10.27787921 -15.66015625 4.49609375 C-10.42731986 1.79899306 -5.93808305 -0.09896805 0 0 Z " fill="#F0FBFB" transform="translate(211.25,37.9375)"/>
<path d="M0 0 C0.99 0.66 1.98 1.32 3 2 C0.08487898 3.81499388 -2.83220049 5.62681535 -5.75 7.4375 C-6.67143799 8.00936035 -7.59287598 8.5812207 -8.54223633 9.17041016 C-14.10201759 12.61233228 -19.67864969 16.02423712 -25.27734375 19.40234375 C-25.89229706 19.77381027 -26.50725037 20.14527679 -27.14083862 20.52799988 C-30.16711453 22.35568364 -33.19551298 24.17967455 -36.22753906 25.99780273 C-43.01134818 30.09072681 -49.55937234 34.38850122 -56 39 C-56.99 39.66 -57.98 40.32 -59 41 C-58.56808366 39.47757149 -58.12912438 37.95714081 -57.6875 36.4375 C-57.44386719 35.59058594 -57.20023437 34.74367188 -56.94921875 33.87109375 C-56.63597656 32.92363281 -56.32273437 31.97617187 -56 31 C-55.70738281 29.88109375 -55.41476562 28.7621875 -55.11328125 27.609375 C-52.64281285 22.02175453 -46.58442923 19.64643187 -41.5 16.8125 C-39.22742451 15.51215457 -36.9566077 14.20873106 -34.6875 12.90234375 C-33.55828125 12.25507324 -32.4290625 11.60780273 -31.265625 10.94091797 C-28.24025924 9.14279762 -25.33508717 7.24970414 -22.4375 5.25390625 C-21.59767578 4.68244873 -20.75785156 4.11099121 -19.89257812 3.5222168 C-18.33834286 2.45217339 -16.7993123 1.35957549 -15.27929688 0.24145508 C-9.57331241 -3.6200581 -6.041578 -3.14853381 0 0 Z " fill="#F5A14F" transform="translate(370,401)"/>
<path d="M0 0 C4.93393433 0.56904456 8.97003437 2.16257536 13.390625 4.31640625 C14.43660858 4.81445015 14.43660858 4.81445015 15.50372314 5.32255554 C16.98831988 6.03028837 18.4713389 6.74133886 19.95288086 7.45544434 C23.81047949 9.3145453 27.67954535 11.14953376 31.546875 12.98828125 C32.298479 13.3465097 33.05008301 13.70473816 33.82446289 14.07382202 C39.01580415 16.54495872 44.23057273 18.94932755 49.5 21.25 C57.0606356 24.55983848 64.565413 27.98617111 72.0625 31.4375 C73.80660156 32.23752441 73.80660156 32.23752441 75.5859375 33.05371094 C76.66230469 33.55032227 77.73867187 34.04693359 78.84765625 34.55859375 C79.81711182 35.00517334 80.78656738 35.45175293 81.78540039 35.91186523 C84 37 84 37 85 38 C85.04063832 39.66617115 85.042721 41.33388095 85 43 C80.60163285 42.33817344 76.78648772 40.74184519 72.76171875 38.9296875 C71.70349159 38.46001305 71.70349159 38.46001305 70.62388611 37.98085022 C68.30921049 36.95117196 65.99822454 35.91351155 63.6875 34.875 C62.07538395 34.15432037 60.4632417 33.43369935 58.85107422 32.71313477 C48.06591701 27.88068593 37.32672529 22.95185634 26.625 17.9375 C25.98275482 17.6368866 25.34050964 17.33627319 24.67880249 17.02655029 C15.7143364 12.82375749 6.83677454 8.46410348 -2 4 C-1.34 2.68 -0.68 1.36 0 0 Z " fill="#F9C833" transform="translate(170,87)"/>
<path d="M0 0 C0.495 4.455 0.495 4.455 1 9 C-3.95787647 10.20937035 -8.9159774 11.41781519 -13.87426758 12.62548828 C-15.55271145 13.03442813 -17.23109906 13.44359898 -18.90942383 13.85302734 C-27.80047054 16.02183526 -36.69408487 18.17999617 -45.59765625 20.296875 C-46.31610214 20.46930725 -47.03454803 20.6417395 -47.77476501 20.81939697 C-52.76831329 22 -52.76831329 22 -55 22 C-56.3271261 18.0186217 -56.06915913 14.14954773 -56 10 C-53.01850825 9.16729629 -50.19103868 8.78687461 -47.10546875 8.5703125 C-45.68282715 8.46323975 -45.68282715 8.46323975 -44.23144531 8.35400391 C-42.72469238 8.24064697 -42.72469238 8.24064697 -41.1875 8.125 C-28.70161021 7.10108683 -16.87618056 5.50445486 -5.171875 0.76953125 C-3 0 -3 0 0 0 Z " fill="#DB2D9A" transform="translate(371,189)"/>
<path d="M0 0 C2.23346078 21.3037797 2.23346078 21.3037797 -1.109375 26.8359375 C-4.20605363 28.74257021 -6.41724725 28.40491252 -10 28 C-13.10598688 26.90451288 -16.0030329 25.48860713 -18.9375 24 C-19.71673828 23.6184375 -20.49597656 23.236875 -21.29882812 22.84375 C-23.2052739 21.90807109 -25.10351594 20.9557085 -27 20 C-27 18.68 -27 17.36 -27 16 C-24.56265676 14.16745657 -22.24724698 12.64571046 -19.625 11.125 C-18.89853271 10.68881348 -18.17206543 10.25262695 -17.42358398 9.80322266 C-15.96589581 8.92974162 -14.5045735 8.0622946 -13.03955078 7.20117188 C-10.3612739 5.62382902 -7.71437171 3.99623161 -5.0625 2.375 C-1.13259669 0 -1.13259669 0 0 0 Z " fill="#DC2B9D" transform="translate(300,456)"/>
<path d="M0 0 C1.43931117 0.45261358 2.87638999 0.91232979 4.3125 1.375 C5.11300781 1.63023437 5.91351563 1.88546875 6.73828125 2.1484375 C9 3 9 3 12 5 C12.70312684 9.39740433 12.50918317 13.86555204 12.5 18.3125 C12.52835938 19.54935547 12.55671875 20.78621094 12.5859375 22.06054688 C12.60787562 32.21241114 12.60787562 32.21241114 9.69140625 35.3515625 C7 37 7 37 3.4375 37.0625 C-0.3367893 35.89590149 -1.87051297 35.32199976 -4 32 C-4.42288897 27.70062882 -4.27913699 24.93808333 -3.046875 20.796875 C-1.87464279 16.54534624 -1.33227464 12.4365943 -0.875 8.0625 C-0.78863281 7.28326172 -0.70226562 6.50402344 -0.61328125 5.70117188 C-0.40348677 3.8013663 -0.20098006 1.90075826 0 0 Z " fill="#DB2B9B" transform="translate(143,158)"/>
<path d="M0 0 C1.96102954 0.22788722 3.91890505 0.48305057 5.875 0.75 C6.96554687 0.88921875 8.05609375 1.0284375 9.1796875 1.171875 C12 2 12 2 13.30664062 3.78369141 C14.0269073 6.08600862 14.67897332 8.35898669 15.21875 10.7109375 C15.42798096 11.62020996 15.63721191 12.52948242 15.8527832 13.46630859 C16.06636475 14.42617676 16.27994629 15.38604492 16.5 16.375 C16.72067139 17.3542041 16.94134277 18.3334082 17.16870117 19.34228516 C18.82772116 26.85946848 20.12510475 34.34793111 21 42 C19.603522 41.54363464 18.2078492 41.08480512 16.8125 40.625 C15.64654297 40.24214844 15.64654297 40.24214844 14.45703125 39.8515625 C13.64621094 39.57054687 12.83539063 39.28953125 12 39 C11.14801025 38.76168457 10.29602051 38.52336914 9.41821289 38.27783203 C7 37 7 37 6.16650391 34.64550781 C6.06257324 33.67452148 5.95864258 32.70353516 5.8515625 31.703125 C5.71395508 30.62482422 5.57634766 29.54652344 5.43457031 28.43554688 C5.29116211 27.30181641 5.14775391 26.16808594 5 25 C4.59050976 22.78263314 4.16078635 20.56890755 3.7109375 18.359375 C3.49179687 17.27011719 3.27265625 16.18085938 3.046875 15.05859375 C2.82515625 13.96675781 2.6034375 12.87492188 2.375 11.75 C2.14554687 10.61175781 1.91609375 9.47351563 1.6796875 8.30078125 C1.12157793 5.53348796 0.56165956 2.76657454 0 0 Z " fill="#DE557E" transform="translate(315,119)"/>
<path d="M0 0 C4.75481646 0.57634139 7.97048212 2.55068521 12 5 C11.52835013 8.11088213 11.05054172 11.22037094 10.55859375 14.328125 C10.2028234 16.66675529 9.87896017 19.01062379 9.59765625 21.359375 C8.97697426 26.11202569 8.5118871 29.26060753 5.75 33.25 C2.39749731 35.3834108 0.89605586 35.8116783 -3 35 C-6.02883418 32.95882914 -7.70071921 31.46257223 -8.44921875 27.8046875 C-8.6389469 23.8400235 -8.50844452 21.69487418 -6.125 18.4375 C-4 17 -4 17 -2 17 C-1.93941406 16.10796875 -1.87882813 15.2159375 -1.81640625 14.296875 C-1.73261719 13.12640625 -1.64882812 11.9559375 -1.5625 10.75 C-1.48128906 9.58984375 -1.40007812 8.4296875 -1.31640625 7.234375 C-1.06752213 4.69022624 -0.71885058 2.44046752 0 0 Z " fill="#DB2A9C" transform="translate(249,206)"/>
<path d="M0 0 C6.10615571 5.94000181 11.90819864 12.07004258 12.28125 20.9921875 C12 23 12 23 10.1875 25.875 C5.30330162 29.13113225 -0.09755174 31 -6 31 C-5.29030646 24.21304565 -3.92442573 17.65576279 -2.4375 11 C-2.20353516 9.93910156 -1.96957031 8.87820312 -1.72851562 7.78515625 C-1.15557205 5.18937106 -0.57932765 2.59436646 0 0 Z " fill="#FBCA32" transform="translate(166,98)"/>
<path d="M0 0 C2.60597856 0.95362622 5.20973651 1.91267128 7.8125 2.875 C8.55048828 3.14441406 9.28847656 3.41382813 10.04882812 3.69140625 C11.11713867 4.08779297 11.11713867 4.08779297 12.20703125 4.4921875 C12.8616333 4.73308105 13.51623535 4.97397461 14.19067383 5.22216797 C16 6 16 6 19 8 C15.33732513 10.2843305 11.67110802 12.56282695 8.00146484 14.8359375 C6.75307293 15.61037578 5.50567089 16.38641209 4.25927734 17.1640625 C2.46969028 18.2802409 0.67664598 19.39066265 -1.1171875 20.5 C-2.19597168 21.1703125 -3.27475586 21.840625 -4.38623047 22.53125 C-7 24 -7 24 -9 24 C-6.80148049 15.63019764 -3.50929804 7.88172441 0 0 Z " fill="#EF875F" transform="translate(332,386)"/>
<path d="M0 0 C0.33 0 0.66 0 1 0 C0.979375 0.7425 0.95875 1.485 0.9375 2.25 C2.25261547 5.65382828 3.2005224 5.89138526 6.4375 7.375 C8.78754566 8.42172483 8.78754566 8.42172483 11 9 C11.66 8.67 12.32 8.34 13 8 C12.6902353 10.8961496 12.37728812 13.79189576 12.0625 16.6875 C11.97548828 17.50412109 11.88847656 18.32074219 11.79882812 19.16210938 C11.66831055 20.35610352 11.66831055 20.35610352 11.53515625 21.57421875 C11.456604 22.30213623 11.37805176 23.03005371 11.29711914 23.7800293 C10.97274942 26.20360685 10.4795408 28.60229599 10 31 C6.04 29.35 2.08 27.7 -2 26 C-1.34 17.42 -0.68 8.84 0 0 Z " fill="#DF547F" transform="translate(251,180)"/>
<path d="M0 0 C4 1.33333333 8 2.66666667 12 4 C11.48462048 11.13393752 10.55994099 18.01812817 9 25 C7.35293447 24.35731563 5.70737825 23.71076198 4.0625 23.0625 C3.14597656 22.70285156 2.22945312 22.34320313 1.28515625 21.97265625 C-1 21 -1 21 -2 20 C-1.9351316 17.00720782 -1.80804004 14.0483406 -1.625 11.0625 C-1.58117187 10.22525391 -1.53734375 9.38800781 -1.4921875 8.52539062 C-1.12917283 2.25834566 -1.12917283 2.25834566 0 0 Z " fill="#E0557F" transform="translate(146,138)"/>
<path d="M0 0 C0.66 0.33 1.32 0.66 2 1 C0.92363281 1.73863281 -0.15273438 2.47726563 -1.26171875 3.23828125 C-10.61172156 9.71028503 -19.53168193 16.40812324 -28 24 C-28.74636719 24.65097656 -29.49273438 25.30195313 -30.26171875 25.97265625 C-42.13083138 36.95566617 -49.16872253 51.23322112 -49.921875 67.2890625 C-49.94765625 68.18367188 -49.9734375 69.07828125 -50 70 C-50.33 70 -50.66 70 -51 70 C-51.33 67.03 -51.66 64.06 -52 61 C-52.33 61 -52.66 61 -53 61 C-53 44.80386635 -41.31453882 31.50412114 -30.6015625 20.546875 C-22.20240703 12.5662821 -11.02335196 4.0048639 0 0 Z " fill="#F0C136" transform="translate(58,248)"/>
<path d="M0 0 C1.96102954 0.22788722 3.91890505 0.48305057 5.875 0.75 C6.96554687 0.88921875 8.05609375 1.0284375 9.1796875 1.171875 C12 2 12 2 13.3125 3.80859375 C15.22866799 9.91637923 16.27270787 15.59136517 16 22 C12.04 21.01 8.08 20.02 4 19 C3.3306277 16.20895657 2.66438908 13.41722977 2 10.625 C1.71382813 9.43390625 1.71382813 9.43390625 1.421875 8.21875 C1.24140625 7.45820312 1.0609375 6.69765625 0.875 5.9140625 C0.70742188 5.2123291 0.53984375 4.5105957 0.3671875 3.78759766 C0 2 0 2 0 0 Z " fill="#E67569" transform="translate(315,119)"/>
<path d="M0 0 C6.23221635 3.80013192 12.07270806 8.76253633 16 15 C16 15.66 16 16.32 16 17 C9.4 17 2.8 17 -4 17 C-3.56095303 10.58991429 -2.8720604 5.7441208 0 0 Z " fill="#F0FAFA" transform="translate(226,42)"/>
<path d="M0 0 C0.33 0 0.66 0 1 0 C1.33 6.93 1.66 13.86 2 21 C-2.29 19.35 -6.58 17.7 -11 16 C-11 12.37 -11 8.74 -11 5 C-5.555 6.485 -5.555 6.485 0 8 C0 5.36 0 2.72 0 0 Z " fill="#E88063" transform="translate(221,89)"/>
<path d="M0 0 C0.33 0.99 0.66 1.98 1 3 C3.03010445 3.98820965 3.03010445 3.98820965 5.4375 4.625 C9.93625498 5.96812749 9.93625498 5.96812749 12 7 C12.33 6.34 12.66 5.68 13 5 C12.88610125 6.79240663 12.75852313 8.58394835 12.625 10.375 C12.55539062 11.37273437 12.48578125 12.37046875 12.4140625 13.3984375 C12 16 12 16 10 18 C6.7 16.35 3.4 14.7 0 13 C0 8.71 0 4.42 0 0 Z " fill="#E66773" transform="translate(252,172)"/>
<path d="M0 0 C1.4589426 0.47730838 2.91713496 0.95691042 4.375 1.4375 C5.18710938 1.70433594 5.99921875 1.97117188 6.8359375 2.24609375 C9 3 9 3 11 4 C11.125 11.75 11.125 11.75 10 14 C5.61975482 13.33632649 1.84988956 12.22109013 -2 10 C-3.125 6.5 -3.125 6.5 -3 3 C-1.4921875 1.28125 -1.4921875 1.28125 0 0 Z " fill="#E36673" transform="translate(148,128)"/>
<path d="M0 0 C0.04125 0.61875 0.0825 1.2375 0.125 1.875 C0.41375 2.57625 0.7025 3.2775 1 4 C3.8371515 5.19595537 3.8371515 5.19595537 7 6 C8.34413468 6.64461166 9.68009728 7.30712265 11 8 C11.05447047 9.41623216 11.09300508 10.83308191 11.125 12.25 C11.14820313 13.03890625 11.17140625 13.8278125 11.1953125 14.640625 C10.9828378 17.20731941 10.28654105 18.7916067 9 21 C8.67 20.01 8.34 19.02 8 18 C5.90861544 16.76049958 5.90861544 16.76049958 3.4375 15.8125 C2.61121094 15.46832031 1.78492188 15.12414062 0.93359375 14.76953125 C0.29550781 14.51558594 -0.34257812 14.26164062 -1 14 C-1.18451025 4.58997722 -1.18451025 4.58997722 0 0 Z " fill="#EC8461" transform="translate(151,104)"/>
<path d="M0 0 C8.625 2.75 8.625 2.75 12 5 C12.29296875 7.3828125 12.29296875 7.3828125 12.1875 10.125 C12.16042969 11.03507813 12.13335937 11.94515625 12.10546875 12.8828125 C12.07066406 13.58148438 12.03585937 14.28015625 12 15 C7.61110675 14.33501617 4.0188515 12.81242323 0 11 C0 7.37 0 3.74 0 0 Z " fill="#EE8461" transform="translate(254,154)"/>
<path d="M0 0 C9.75 3.875 9.75 3.875 12 5 C11.67 8.63 11.34 12.26 11 16 C7.04 14.35 3.08 12.7 -1 11 C-0.67 7.37 -0.34 3.74 0 0 Z " fill="#E0428D" transform="translate(250,195)"/>
<path d="M0 0 C8.11320755 2.45283019 8.11320755 2.45283019 11 5 C11.57551413 7.8894369 11.33348125 9.99866872 11 13 C10.34 13.66 9.68 14.32 9 15 C5.7 13.35 2.4 11.7 -1 10 C-1.125 2.25 -1.125 2.25 0 0 Z " fill="#E0428D" transform="translate(145,148)"/>
<path d="M0 0 C0 3.3 0 6.6 0 10 C1.8871875 10.061875 1.8871875 10.061875 3.8125 10.125 C4.52019531 10.14820313 5.22789062 10.17140625 5.95703125 10.1953125 C8.31359719 10.13254462 8.31359719 10.13254462 11 8 C10.51780822 13.42465753 10.51780822 13.42465753 8.3125 15.875 C5.21507874 17.38185358 3.40864082 17.55651279 0 17 C-2.875 15.0625 -2.875 15.0625 -5 12 C-5.57260428 8.91549957 -5.68942681 6.06794931 -5 3 C-2.62114537 0 -2.62114537 0 0 0 Z " fill="#5215A4" transform="translate(246,224)"/>
<path d="M0 0 C0.33 0 0.66 0 1 0 C1.144375 1.134375 1.28875 2.26875 1.4375 3.4375 C1.61171478 6.80777201 1.61171478 6.80777201 3 8 C7.12544271 8.40231439 7.12544271 8.40231439 10.8125 6.8125 C12.27538036 4.57968261 12.64505955 2.62655933 13 0 C13.66 0.33 14.32 0.66 15 1 C15.47397116 5.83450586 15.67972486 8.97011384 12.9375 13.125 C10 15 10 15 6.4375 15.0625 C2.6632107 13.89590149 1.12948703 13.32199976 -1 10 C-1.48207377 6.52218208 -1.6026571 3.20531421 0 0 Z " fill="#5115A4" transform="translate(140,180)"/>
<path d="M0 0 C0.69867188 0.16757813 1.39734375 0.33515625 2.1171875 0.5078125 C3.02726562 0.71148437 3.93734375 0.91515625 4.875 1.125 C5.77992188 1.33382812 6.68484375 1.54265625 7.6171875 1.7578125 C8.40351563 1.83773437 9.18984375 1.91765625 10 2 C10.66 1.34 11.32 0.68 12 0 C12.98248524 4.0527516 13.08159574 7.83861737 13 12 C7.06 10.515 7.06 10.515 1 9 C0.67 6.03 0.34 3.06 0 0 Z " fill="#E36673" transform="translate(320,138)"/>
<path d="M0 0 C1.96102954 0.22788722 3.91890505 0.48305057 5.875 0.75 C6.96554687 0.88921875 8.05609375 1.0284375 9.1796875 1.171875 C12 2 12 2 13.375 3.875 C14.18756857 6.63773314 14.13010404 9.13771112 14 12 C9.86645178 11.51775271 6.04458076 11.01114519 2 10 C1.34 6.7 0.68 3.4 0 0 Z " fill="#EA8262" transform="translate(315,119)"/>
<path d="M0 0 C4.02044231 0.26270153 8.04060164 0.52935649 12.06054688 0.79956055 C13.42603584 0.89079769 14.79159546 0.98098406 16.15722656 1.07006836 C18.12844115 1.19884479 20.09938093 1.33180587 22.0703125 1.46484375 C23.25383301 1.543396 24.43735352 1.62194824 25.65673828 1.70288086 C28.81313963 1.98339352 31.88351703 2.43355536 35 3 C28.93355991 6.49816619 21.26243166 7.05624882 14.375 6.9375 C9.32222521 5.53395145 4.69995702 3.30323391 0 1 C0 0.67 0 0.34 0 0 Z " fill="#E17766" transform="translate(106,397)"/>
<path d="M0 0 C1.29123279 3.87369836 0.38646622 4.71657863 -1.375 8.3125 C-4.40118748 15.16124008 -4.87926135 21.58006128 -5 29 C-5.33 29 -5.66 29 -6 29 C-6.33 26.03 -6.66 23.06 -7 20 C-7.33 20 -7.66 20 -8 20 C-7.58071623 13.39628059 -6.50431788 7.71566331 -3 2 C-2.01 1.34 -1.02 0.68 0 0 Z " fill="#EABC38" transform="translate(13,289)"/>
<path d="M0 0 C0.33 0 0.66 0 1 0 C1.57636092 4.26752342 2.14575095 8.53590474 2.70898438 12.80517578 C2.90112866 14.25431767 3.09510281 15.70321825 3.29101562 17.15185547 C3.57395134 19.2464459 3.85007009 21.3418455 4.125 23.4375 C4.29257812 24.69433594 4.46015625 25.95117188 4.6328125 27.24609375 C5.02062944 31.21090307 5.06170681 35.01991098 5 39 C4.67 39 4.34 39 4 39 C3.25347072 34.89504852 2.52381748 30.78753681 1.80883789 26.67700195 C1.56396954 25.28265298 1.31471742 23.88906577 1.06079102 22.49633789 C-0.34085964 14.7914062 -1.4396047 7.78420984 0 0 Z " fill="#B77A59" transform="translate(382,242)"/>
<path d="M0 0 C0 2.97 0 5.94 0 9 C-6.96428571 11.27678571 -6.96428571 11.27678571 -11 10 C-9.35718838 8.33035479 -7.71067239 6.6643536 -6.0625 5 C-5.14597656 4.071875 -4.22945313 3.14375 -3.28515625 2.1875 C-1 0 -1 0 0 0 Z " fill="#E96C70" transform="translate(300,333)"/>
<path d="M0 0 C0.66 0.33 1.32 0.66 2 1 C1.49549316 1.35304199 0.99098633 1.70608398 0.47119141 2.06982422 C-1.81232117 3.6694929 -4.09367931 5.27220717 -6.375 6.875 C-7.56609375 7.70837891 -7.56609375 7.70837891 -8.78125 8.55859375 C-9.54179688 9.09355469 -10.30234375 9.62851562 -11.0859375 10.1796875 C-11.7876709 10.67194824 -12.4894043 11.16420898 -13.21240234 11.67138672 C-15.11586187 13.01871711 -15.11586187 13.01871711 -17 15 C-17.99 14.67 -18.98 14.34 -20 14 C-16.70891716 9.15814515 -12.8956604 6.85537703 -7.875 4.125 C-7.14667969 3.70992187 -6.41835938 3.29484375 -5.66796875 2.8671875 C-3.81630888 1.84038905 -1.91108278 0.91143948 0 0 Z " fill="#E5B73A" transform="translate(58,248)"/>
<path d="M0 0 C0.33 0.66 0.66 1.32 1 2 C1.66 2 2.32 2 3 2 C2.67 7.28 2.34 12.56 2 18 C1.67 18 1.34 18 1 18 C0.67 15.03 0.34 12.06 0 9 C-0.33 9 -0.66 9 -1 9 C-0.67 6.03 -0.34 3.06 0 0 Z " fill="#D2A740" transform="translate(6,300)"/>
<path d="M0 0 C0.33 0 0.66 0 1 0 C1.89604368 6.04829486 2.11269443 11.8894576 2 18 C-1.20105218 13.19842172 -1.25593353 8.08403021 -0.5625 2.4375 C-0.376875 1.633125 -0.19125 0.82875 0 0 Z " fill="#CD9B47" transform="translate(382,242)"/>
<path d="M0 0 C5.01508715 1.54058233 9.6147081 3.02931839 14 6 C13.67 6.99 13.34 7.98 13 9 C11.96875 8.236875 10.9375 7.47375 9.875 6.6875 C6.72582739 4.42984469 3.52287088 2.63254992 0 1 C0 0.67 0 0.34 0 0 Z " fill="#76228B" transform="translate(354,176)"/>
<path d="M0 0 C0 3.96 0 7.92 0 12 C-2.56616632 8.15075052 -2.55097676 5.5650696 -3 1 C-1 0 -1 0 0 0 Z " fill="#E8B53C" transform="translate(382,236)"/>
</svg>
