<?xml version="1.0" standalone="no"?>
<!DOCTYPE svg PUBLIC "-//W3C//DTD SVG 20010904//EN"
 "http://www.w3.org/TR/2001/REC-SVG-20010904/DTD/svg10.dtd">
<svg version="1.0" xmlns="http://www.w3.org/2000/svg"
 width="500.000000pt" height="500.000000pt" viewBox="0 0 500.000000 500.000000"
 preserveAspectRatio="xMidYMid meet">

<g transform="translate(0.000000,500.000000) scale(0.100000,-0.100000)"
fill="#000000" stroke="none">
<path d="M2337 4023 c-9 -8 -9 -137 -1 -225 l7 -66 89 -41 c49 -23 91 -41 93
-41 3 0 5 42 5 93 0 99 -17 182 -50 247 -20 40 -21 40 -79 40 -32 0 -61 -3
-64 -7z"/>
<path d="M2550 4026 c0 -2 9 -23 20 -48 25 -56 44 -214 36 -299 l-6 -65 148
-66 c81 -37 210 -95 288 -130 77 -35 150 -70 162 -78 19 -13 25 -38 47 -209
14 -107 24 -201 23 -210 -2 -9 -18 65 -35 163 -18 98 -34 180 -35 182 -2 1
-35 -6 -73 -17 -39 -11 -122 -22 -188 -26 -65 -3 -120 -10 -123 -14 -2 -4 0
-48 6 -96 8 -68 7 -137 -5 -308 -9 -121 -19 -264 -22 -317 l-6 -97 -106 -25
c-310 -72 -419 -85 -736 -93 -217 -5 -406 5 -423 22 -6 5 23 982 35 1172 3 55
9 106 13 113 6 10 99 28 297 56 39 6 43 9 49 43 10 53 42 203 50 229 3 12 3
22 0 22 -4 0 -41 -18 -84 -39 -276 -140 -492 -392 -592 -689 -29 -87 -60 -247
-60 -311 0 -28 -10 -45 -55 -92 -33 -34 -69 -87 -88 -126 -27 -57 -32 -79 -32
-139 1 -166 134 -316 350 -395 33 -12 71 -34 83 -48 141 -156 258 -251 397
-323 181 -92 328 -128 553 -134 155 -4 165 -5 230 -34 85 -39 116 -37 120 7 3
33 177 502 190 514 4 4 96 -29 206 -73 216 -87 216 -87 216 -15 0 28 10 51 39
90 54 71 107 167 145 258 27 66 40 83 104 138 189 162 281 338 254 483 -30
163 -151 290 -339 358 -61 22 -64 25 -129 123 -78 117 -198 241 -304 316 -73
52 -261 151 -286 151 -9 0 -9 -11 3 -47 15 -52 77 -307 87 -360 5 -30 3 -33
-19 -33 -31 0 -35 8 -75 165 -17 66 -45 162 -61 213 -35 105 -32 103 -149 121
-41 7 -85 14 -97 17 -13 2 -23 3 -23 0z m955 -681 c94 -24 218 -90 285 -151
109 -102 138 -209 90 -339 -129 -346 -654 -626 -1360 -725 -493 -69 -928 -36
-1197 91 -78 37 -170 121 -208 191 -27 47 -30 63 -30 138 0 76 3 91 30 139 33
59 149 173 214 209 22 13 41 21 41 19 0 -2 -36 -31 -79 -65 -218 -169 -254
-329 -109 -479 97 -100 312 -150 685 -160 231 -6 351 3 581 43 658 114 1099
299 1294 544 86 108 107 195 67 277 -47 97 -222 213 -394 262 l-70 20 50 0
c28 1 78 -6 110 -14z m168 -168 c20 -16 50 -50 64 -75 49 -83 31 -194 -41
-261 l-26 -24 0 66 c0 67 -29 238 -49 290 -22 56 -15 57 52 4z m-396 -314 c-3
-10 -5 -4 -5 12 0 17 2 24 5 18 2 -7 2 -21 0 -30z m10 -55 c-3 -8 -6 -5 -6 6
-1 11 2 17 5 13 3 -3 4 -12 1 -19z m-2047 -118 c0 -59 37 -204 78 -307 l21
-52 -27 10 c-91 34 -152 93 -171 164 -17 64 -1 111 74 211 13 19 25 7 25 -26z
m1470 -604 c0 -14 -225 -149 -344 -207 l-138 -67 -142 65 c-273 124 -385 177
-383 179 1 1 74 -2 162 -8 215 -13 615 3 760 32 47 9 85 12 85 6z"/>
<path d="M2193 4004 c-105 -22 -128 -36 -146 -86 l-15 -45 47 -20 c25 -11 81
-37 125 -57 l78 -37 -6 26 c-4 14 -9 71 -11 127 -3 56 -6 102 -7 103 -2 1 -31
-4 -65 -11z"/>
<path d="M2020 3818 c0 -13 14 -41 30 -62 52 -69 36 -109 -52 -130 -20 -5 -28
-13 -28 -29 0 -39 -13 -50 -44 -36 -20 9 -26 18 -22 32 4 17 0 18 -52 12 -126
-15 -256 -41 -259 -50 -2 -6 61 -41 139 -77 l143 -66 -3 -33 c-1 -19 -7 -46
-13 -61 -15 -36 10 -78 45 -78 38 0 48 22 41 84 -4 31 -5 56 -3 56 3 0 104
-47 225 -104 122 -58 244 -114 272 -126 28 -13 51 -27 51 -33 0 -6 -11 -27
-25 -47 -21 -31 -24 -42 -16 -63 12 -30 54 -45 75 -28 8 6 17 36 20 65 l7 54
110 -50 c60 -27 117 -47 125 -44 12 5 14 15 10 44 -28 189 -22 202 87 202 124
1 307 36 307 59 0 5 -42 27 -92 49 -51 23 -178 80 -283 127 -104 48 -195 89
-201 91 -7 3 -15 -48 -23 -148 -7 -84 -14 -154 -16 -156 -2 -2 -17 4 -35 13
-21 11 -29 21 -26 33 2 9 7 80 11 157 l6 140 -68 29 c-37 16 -150 67 -251 113
-100 46 -184 83 -187 83 -3 0 -5 -10 -5 -22z"/>
<path d="M1355 1395 c-76 -27 -114 -114 -95 -215 18 -94 60 -130 153 -130 60
0 107 27 107 61 0 24 -5 24 -30 -1 -20 -20 -83 -28 -106 -12 -24 16 -34 55
-34 139 0 98 14 133 54 133 26 0 42 -15 48 -45 7 -35 68 -12 68 26 0 43 -97
69 -165 44z"/>
<path d="M1716 1400 c-72 -23 -117 -115 -102 -212 15 -98 70 -143 167 -136 69
5 100 28 125 95 21 55 14 154 -13 191 -43 57 -114 82 -177 62z m89 -50 c28
-31 33 -182 8 -230 -24 -47 -64 -53 -90 -14 -26 40 -26 198 0 237 21 33 56 35
82 7z"/>
<path d="M3785 1400 c-67 -21 -105 -84 -105 -175 0 -69 18 -113 59 -148 28
-23 42 -27 97 -27 70 0 104 20 104 61 l0 20 -26 -20 c-36 -28 -95 -28 -120 0
-15 17 -20 39 -22 113 -3 101 9 139 46 144 28 4 50 -12 54 -41 5 -37 68 -15
68 24 0 39 -92 68 -155 49z"/>
<path d="M700 1389 c0 -6 9 -13 20 -16 19 -5 20 -14 20 -148 0 -134 -1 -143
-20 -148 -11 -3 -20 -10 -20 -16 0 -7 45 -11 140 -11 l140 0 0 45 c0 38 -3 45
-20 45 -13 0 -20 -7 -20 -18 0 -29 -21 -42 -67 -42 l-43 0 0 70 0 70 50 0 c38
0 50 4 50 15 0 11 -12 15 -50 15 l-50 0 0 60 0 60 41 0 c36 0 42 -3 52 -30 17
-46 37 -38 37 15 l0 45 -130 0 c-87 0 -130 -4 -130 -11z"/>
<path d="M2000 1389 c0 -6 9 -13 20 -16 19 -5 20 -14 20 -148 0 -134 -1 -143
-20 -148 -43 -11 -19 -27 40 -27 44 0 60 4 60 14 0 7 -9 16 -20 19 -19 5 -20
14 -20 128 0 67 2 120 4 118 3 -3 29 -94 66 -236 9 -35 15 -43 33 -43 21 0 26
12 59 143 l36 142 1 -123 c1 -100 -2 -124 -14 -128 -8 -4 -15 -12 -15 -20 0
-11 18 -14 80 -14 51 0 80 4 80 11 0 6 -9 13 -20 16 -19 5 -20 14 -20 148 0
134 1 143 20 148 11 3 20 10 20 16 0 8 -25 11 -77 9 l-78 -3 -21 -90 c-29
-127 -29 -127 -48 -50 -9 39 -21 87 -27 108 l-10 37 -74 0 c-48 0 -75 -4 -75
-11z"/>
<path d="M2470 1389 c0 -6 9 -13 20 -16 19 -5 20 -14 20 -149 0 -137 -1 -144
-20 -144 -11 0 -20 -7 -20 -15 0 -12 13 -15 55 -15 40 0 55 4 55 14 0 8 -7 16
-15 20 -12 4 -15 28 -14 128 l1 123 37 -140 c35 -130 39 -140 61 -140 22 0 26
10 59 140 l36 140 3 -120 c2 -98 0 -122 -13 -131 -33 -24 -16 -34 60 -34 57 0
75 3 75 14 0 7 -9 16 -20 19 -19 5 -20 14 -20 142 0 128 1 137 20 142 11 3 20
12 20 19 0 11 -18 14 -73 14 l-74 0 -23 -106 c-13 -58 -26 -100 -30 -92 -4 7
-17 55 -30 106 l-22 92 -74 0 c-47 0 -74 -4 -74 -11z"/>
<path d="M2940 1385 c0 -8 9 -15 20 -15 19 0 20 -7 20 -141 0 -132 -1 -141
-20 -146 -11 -3 -20 -12 -20 -19 0 -11 27 -14 135 -14 l135 0 0 45 c0 53 -22
62 -39 15 -9 -27 -14 -30 -55 -30 l-46 0 0 70 0 70 50 0 c38 0 50 4 50 15 0
11 -12 15 -50 15 l-50 0 0 61 0 60 43 -3 c38 -3 42 -6 45 -30 2 -20 9 -28 23
-28 16 0 19 7 19 45 l0 45 -130 0 c-109 0 -130 -2 -130 -15z"/>
<path d="M3280 1389 c0 -6 9 -13 20 -16 19 -5 20 -14 20 -148 0 -134 -1 -143
-20 -148 -11 -3 -20 -10 -20 -16 0 -7 29 -11 80 -11 62 0 80 3 80 14 0 8 -7
16 -15 20 -11 4 -15 21 -15 61 0 75 18 72 53 -9 30 -67 53 -86 107 -86 29 0
43 24 20 32 -5 2 -25 31 -43 66 l-34 63 28 29 c50 49 37 128 -22 149 -42 15
-239 15 -239 0z m190 -38 c24 -47 0 -121 -41 -121 -17 0 -19 7 -19 70 0 68 1
70 25 70 14 0 29 -8 35 -19z"/>
<path d="M4020 1385 c0 -8 9 -15 20 -15 19 0 20 -7 20 -141 0 -132 -1 -141
-20 -146 -11 -3 -20 -12 -20 -19 0 -11 27 -14 135 -14 l135 0 0 45 c0 53 -22
62 -39 15 -9 -27 -14 -30 -55 -30 l-46 0 0 70 0 70 50 0 c38 0 50 4 50 15 0
11 -12 15 -50 15 l-50 0 0 61 0 60 43 -3 c38 -3 42 -6 45 -30 2 -20 9 -28 23
-28 16 0 19 7 19 45 l0 45 -130 0 c-109 0 -130 -2 -130 -15z"/>
<path d="M1050 1185 c0 -24 3 -25 60 -25 57 0 60 1 60 25 0 24 -3 25 -60 25
-57 0 -60 -1 -60 -25z"/>
<path d="M1367 882 c-35 -38 -9 -102 41 -102 22 0 51 24 53 43 6 63 -56 101
-94 59z m61 -14 c17 -17 15 -43 -4 -59 -31 -26 -70 25 -44 56 15 18 32 19 48
3z"/>
<path d="M1540 840 c0 -46 3 -60 14 -60 10 0 16 13 18 38 l3 37 24 -38 c13
-21 28 -36 35 -34 16 5 15 109 -1 115 -9 2 -13 -8 -13 -35 l0 -38 -27 38 c-39
55 -53 49 -53 -23z"/>
<path d="M1730 840 l0 -60 35 0 c19 0 35 5 35 10 0 6 -11 10 -25 10 -23 0 -25
3 -25 50 0 28 -4 50 -10 50 -6 0 -10 -27 -10 -60z"/>
<path d="M1870 841 c0 -48 3 -61 15 -61 13 0 15 11 13 57 -4 81 -28 85 -28 4z"/>
<path d="M1980 840 c0 -33 4 -60 10 -60 6 0 10 19 10 42 l0 41 30 -41 c17 -23
35 -42 40 -42 6 0 10 27 10 60 0 33 -4 60 -10 60 -5 0 -10 -17 -10 -37 l-1
-38 -30 38 c-17 20 -35 37 -40 37 -5 0 -9 -27 -9 -60z"/>
<path d="M2160 840 l0 -60 45 0 c25 0 45 5 45 10 0 6 -13 10 -30 10 -20 0 -30
5 -30 15 0 8 9 15 20 15 11 0 20 5 20 10 0 6 -9 10 -20 10 -11 0 -20 7 -20 15
0 10 10 15 30 15 17 0 30 5 30 10 0 6 -20 10 -45 10 l-45 0 0 -60z"/>
<path d="M2443 894 c-24 -10 -14 -43 17 -59 35 -18 30 -40 -6 -31 -14 4 -24 2
-24 -4 0 -16 26 -23 55 -16 38 10 34 51 -5 65 -38 13 -41 36 -4 27 19 -5 25
-3 22 6 -5 14 -35 20 -55 12z"/>
<path d="M2590 840 c0 -33 4 -60 10 -60 6 0 10 11 10 25 0 20 5 25 25 25 20 0
25 -5 25 -25 0 -14 5 -25 10 -25 6 0 10 27 10 60 0 33 -4 60 -10 60 -5 0 -10
-11 -10 -25 0 -20 -5 -25 -25 -25 -20 0 -25 5 -25 25 0 14 -4 25 -10 25 -6 0
-10 -27 -10 -60z"/>
<path d="M2780 880 c-24 -24 -25 -48 -4 -78 30 -43 104 -17 104 36 0 28 -34
62 -60 62 -11 0 -29 -9 -40 -20z m72 -25 c20 -45 -38 -79 -62 -36 -13 25 -13
27 6 45 22 23 43 20 56 -9z"/>
<path d="M2960 841 c0 -34 4 -61 10 -61 6 0 10 9 10 19 0 12 8 21 21 23 56 8
48 70 -10 76 l-31 3 0 -60z m55 19 c0 -8 -8 -16 -17 -18 -13 -2 -18 3 -18 18
0 15 5 20 18 18 9 -2 17 -10 17 -18z"/>
<path d="M3120 840 c0 -33 4 -60 10 -60 6 0 10 8 10 18 0 10 12 22 30 29 51
19 34 73 -22 73 -28 0 -28 -1 -28 -60z m55 20 c0 -8 -8 -16 -17 -18 -13 -2
-18 3 -18 18 0 15 5 20 18 18 9 -2 17 -10 17 -18z"/>
<path d="M3270 840 c0 -33 4 -60 10 -60 6 0 10 27 10 60 0 33 -4 60 -10 60 -6
0 -10 -27 -10 -60z"/>
<path d="M3380 840 c0 -66 17 -83 22 -22 l3 37 25 -37 c37 -55 50 -49 50 22 0
33 -4 60 -10 60 -5 0 -10 -16 -10 -35 0 -44 -9 -44 -38 0 -12 19 -27 35 -32
35 -6 0 -10 -27 -10 -60z"/>
<path d="M3584 893 c-23 -16 -34 -51 -24 -77 10 -26 48 -43 75 -32 17 6 21 46
5 46 -5 0 -10 -7 -10 -15 0 -20 -37 -19 -48 1 -18 33 11 72 46 62 5 -2 11 2
11 7 2 12 -40 18 -55 8z"/>
</g>
</svg>
